<?xml version="1.0" encoding="utf-8"?>
<svg width="1200" zoomAndPan="magnify" viewBox="0 0 900 641.24998" height="855" preserveAspectRatio="xMidYMid meet" version="1.0" xmlns="http://www.w3.org/2000/svg">
  <defs>
    <g/>
    <clipPath id="170855a90a">
      <path d="M 0.527344 0 L 899.472656 0 L 899.472656 640.5 L 0.527344 640.5 Z M 0.527344 0 " clip-rule="nonzero"/>
    </clipPath>
    <clipPath id="d14129f396">
      <path d="M 127 475.09375 L 899.472656 475.09375 L 899.472656 611.433594 L 127 611.433594 Z M 127 475.09375 " clip-rule="nonzero"/>
    </clipPath>
    <clipPath id="1aadce44e8">
      <path d="M 0.527344 475.09375 L 899.472656 475.09375 L 899.472656 640.5 L 0.527344 640.5 Z M 0.527344 475.09375 " clip-rule="nonzero"/>
    </clipPath>
  </defs>
  <g clip-path="url(#170855a90a)">
    <path fill="#ffffff" d="M 0.527344 0 L 899.472656 0 L 899.472656 640.5 L 0.527344 640.5 Z M 0.527344 0 " fill-opacity="1" fill-rule="nonzero"/>
    <path fill="#ffffff" d="M 0.527344 0 L 899.472656 0 L 899.472656 640.5 L 0.527344 640.5 Z M 0.527344 0 " fill-opacity="1" fill-rule="nonzero"/>
  </g>
  <g clip-path="url(#d14129f396)">
    <path fill="#ffffff" d="M 127.488281 475.132812 L 536.203125 475.136719 L 944.914062 475.136719 C 944.914062 520.605469 944.914062 566.074219 944.914062 611.542969 C 672.4375 611.542969 399.964844 611.542969 127.488281 611.542969 C 127.488281 566.074219 127.488281 520.605469 127.488281 475.132812 " fill-opacity="1" fill-rule="nonzero"/>
  </g>
  <path stroke-linecap="butt" transform="matrix(1.439729, 0, 0, 1.43913, -4.298133, 49.359051)" fill-opacity="1" fill="#c591c1" fill-rule="nonzero" stroke-linejoin="miter" d="M 401.169578 151.488807 C 401.169578 150.975802 401.272679 150.481797 401.478881 150.009506 C 401.883146 149.081211 402.550589 148.41349 403.481211 148.009057 C 403.958732 147.800055 404.457958 147.696911 404.978889 147.696911 C 405.502534 147.696911 406.001759 147.800055 406.47928 148.009057 C 407.409902 148.41349 408.077345 149.081211 408.478897 150.009506 C 408.690525 150.487226 408.793626 150.989374 408.793626 151.510522 C 408.793626 152.03167 408.690525 152.531104 408.478897 153.008823 C 408.077345 153.939833 407.409902 154.607554 406.47928 155.009273 C 406.001759 155.220989 405.502534 155.324133 404.978889 155.324133 C 404.457958 155.324133 403.958732 155.220989 403.481211 155.009273 C 402.550589 154.607554 401.883146 153.939833 401.478881 153.008823 C 401.267253 152.525675 401.164152 152.018099 401.169578 151.488807 Z M 401.169578 151.488807 " stroke="#c591c1" stroke-width="4" stroke-opacity="1" stroke-miterlimit="10"/>
  <path fill="#a6aaae" d="M 797.558594 459.410156 C 797.570312 460.09375 797.425781 460.738281 797.128906 461.351562 C 796.886719 461.878906 796.515625 462.285156 796.019531 462.578125 L 795.84375 462.578125 C 795.746094 462.582031 795.667969 462.550781 795.601562 462.476562 L 795.097656 461.984375 C 795.011719 461.902344 794.972656 461.804688 794.980469 461.683594 C 794.984375 461.578125 795.023438 461.488281 795.097656 461.410156 L 795.355469 461.09375 C 795.457031 460.964844 795.542969 460.824219 795.617188 460.675781 C 795.695312 460.507812 795.734375 460.332031 795.730469 460.144531 L 795.730469 459.699219 C 795.738281 459.621094 795.714844 459.550781 795.660156 459.496094 L 795.484375 459.394531 C 795.34375 459.417969 795.214844 459.382812 795.105469 459.285156 C 794.996094 459.1875 794.945312 459.066406 794.953125 458.921875 L 794.953125 457.480469 C 794.945312 457.3125 795.003906 457.167969 795.125 457.050781 C 795.242188 456.941406 795.382812 456.886719 795.542969 456.890625 L 796.984375 456.890625 C 797.164062 456.882812 797.316406 456.9375 797.445312 457.066406 C 797.558594 457.1875 797.609375 457.328125 797.601562 457.496094 L 797.601562 459.480469 Z M 797.558594 459.410156 " fill-opacity="1" fill-rule="nonzero"/>
  <path fill="#a6aaae" d="M 817.542969 456.792969 C 817.707031 456.789062 817.84375 456.847656 817.960938 456.964844 C 818.082031 457.09375 818.140625 457.246094 818.132812 457.425781 L 818.132812 458.863281 C 818.136719 459.023438 818.082031 459.164062 817.972656 459.28125 C 817.855469 459.402344 817.710938 459.460938 817.542969 459.453125 L 806.023438 459.453125 C 805.941406 459.464844 805.863281 459.460938 805.785156 459.433594 C 805.707031 459.40625 805.636719 459.367188 805.582031 459.308594 C 805.523438 459.25 805.480469 459.179688 805.453125 459.101562 C 805.429688 459.023438 805.421875 458.945312 805.433594 458.863281 L 805.433594 439.996094 C 805.429688 439.824219 805.488281 439.679688 805.613281 439.5625 C 805.734375 439.445312 805.882812 439.394531 806.054688 439.40625 L 807.492188 439.40625 C 807.652344 439.402344 807.789062 439.449219 807.910156 439.550781 C 808.039062 439.671875 808.097656 439.820312 808.082031 439.996094 L 808.082031 456.804688 L 817.527344 456.804688 Z M 817.542969 456.792969 " fill-opacity="1" fill-rule="nonzero"/>
  <path fill="#a6aaae" d="M 835.597656 456.792969 C 835.761719 456.789062 835.898438 456.847656 836.015625 456.964844 C 836.136719 457.09375 836.195312 457.246094 836.1875 457.425781 L 836.1875 458.863281 C 836.191406 459.023438 836.136719 459.164062 836.027344 459.28125 C 835.910156 459.402344 835.765625 459.460938 835.597656 459.453125 L 824.078125 459.453125 C 823.996094 459.464844 823.917969 459.460938 823.839844 459.433594 C 823.761719 459.40625 823.691406 459.367188 823.632812 459.308594 C 823.578125 459.25 823.535156 459.179688 823.507812 459.101562 C 823.484375 459.023438 823.476562 458.945312 823.488281 458.863281 L 823.488281 439.996094 C 823.484375 439.824219 823.542969 439.679688 823.667969 439.5625 C 823.789062 439.445312 823.9375 439.394531 824.109375 439.40625 L 825.546875 439.40625 C 825.703125 439.402344 825.84375 439.449219 825.964844 439.550781 C 826.09375 439.671875 826.148438 439.820312 826.136719 439.996094 L 826.136719 456.804688 L 835.582031 456.804688 Z M 835.597656 456.792969 " fill-opacity="1" fill-rule="nonzero"/>
  <path fill="#a6aaae" d="M 855.941406 441.089844 C 856.035156 441.15625 856.117188 441.238281 856.183594 441.335938 C 856.246094 441.421875 856.28125 441.515625 856.285156 441.621094 C 856.289062 441.738281 856.253906 441.84375 856.183594 441.9375 L 855.464844 443.121094 C 855.359375 443.308594 855.203125 443.414062 854.988281 443.4375 C 854.917969 443.449219 854.84375 443.449219 854.773438 443.4375 L 854.515625 443.277344 C 853.882812 442.828125 853.203125 442.476562 852.46875 442.226562 C 851.738281 441.980469 850.984375 441.835938 850.210938 441.796875 C 849.132812 441.785156 848.097656 441.976562 847.097656 442.378906 C 846.101562 442.78125 845.21875 443.359375 844.449219 444.113281 C 843.730469 444.820312 843.167969 445.632812 842.765625 446.558594 C 842.367188 447.476562 842.164062 448.4375 842.160156 449.4375 C 842.152344 450.492188 842.359375 451.503906 842.78125 452.472656 C 843.121094 453.238281 843.570312 453.925781 844.136719 454.542969 C 844.703125 455.15625 845.351562 455.667969 846.082031 456.070312 C 846.8125 456.472656 847.589844 456.746094 848.414062 456.894531 C 849.234375 457.042969 850.058594 457.058594 850.886719 456.933594 C 851.269531 456.878906 851.644531 456.789062 852.007812 456.660156 C 852.417969 456.519531 852.816406 456.351562 853.203125 456.15625 C 853.660156 455.933594 854.101562 455.683594 854.527344 455.410156 C 854.65625 455.328125 854.796875 455.277344 854.945312 455.265625 C 855.15625 455.292969 855.308594 455.402344 855.394531 455.597656 L 856.15625 456.863281 C 856.214844 456.960938 856.25 457.066406 856.257812 457.179688 C 856.257812 457.417969 856.152344 457.589844 855.941406 457.699219 C 855.082031 458.320312 854.152344 458.796875 853.148438 459.136719 C 851.734375 459.609375 850.292969 459.765625 848.8125 459.613281 C 847.332031 459.460938 845.949219 459.007812 844.667969 458.257812 C 843.90625 457.808594 843.214844 457.273438 842.59375 456.648438 C 842.195312 456.246094 841.832031 455.816406 841.503906 455.359375 C 841.175781 454.898438 840.886719 454.417969 840.636719 453.910156 C 840.390625 453.402344 840.183594 452.878906 840.023438 452.339844 C 839.859375 451.796875 839.742188 451.246094 839.671875 450.6875 C 839.597656 450.128906 839.574219 449.566406 839.59375 449.003906 C 839.613281 448.4375 839.679688 447.878906 839.792969 447.328125 C 839.90625 446.773438 840.0625 446.234375 840.265625 445.707031 C 840.46875 445.179688 840.710938 444.671875 840.996094 444.183594 C 841.445312 443.421875 841.984375 442.726562 842.609375 442.097656 C 843.234375 441.46875 843.929688 440.929688 844.695312 440.484375 C 845.472656 440.035156 846.292969 439.691406 847.15625 439.449219 C 849.148438 438.90625 851.125 438.949219 853.089844 439.578125 C 854.117188 439.9375 855.066406 440.441406 855.941406 441.089844 Z M 855.941406 441.089844 " fill-opacity="1" fill-rule="nonzero"/>
  <path d="M 246.601562 230.386719 C 249.304688 226.398438 252.1875 222.542969 255.242188 218.816406 C 258.300781 215.09375 261.523438 211.515625 264.910156 208.089844 C 268.296875 204.664062 271.835938 201.398438 275.523438 198.296875 C 279.210938 195.195312 283.035156 192.269531 286.992188 189.519531 C 290.949219 186.769531 295.027344 184.207031 299.222656 181.835938 C 303.414062 179.460938 307.710938 177.285156 312.105469 175.304688 C 316.5 173.328125 320.976562 171.554688 325.53125 169.988281 C 330.089844 168.421875 334.710938 167.070312 339.394531 165.929688 L 320.878906 87.292969 C 317.246094 87.675781 313.628906 88.179688 310.027344 88.8125 C 306.429688 89.445312 302.855469 90.199219 299.308594 91.078125 C 295.765625 91.960938 292.253906 92.960938 288.773438 94.085938 C 285.296875 95.210938 281.863281 96.453125 278.476562 97.816406 C 275.085938 99.179688 271.746094 100.65625 268.457031 102.253906 C 265.171875 103.847656 261.941406 105.554688 258.773438 107.375 C 255.605469 109.195312 252.503906 111.121094 249.46875 113.15625 C 246.4375 115.191406 243.476562 117.332031 240.589844 119.570312 C 237.703125 121.8125 234.898438 124.152344 232.175781 126.585938 C 229.453125 129.023438 226.820312 131.550781 224.273438 134.167969 C 221.726562 136.789062 219.273438 139.492188 216.914062 142.285156 C 214.554688 145.074219 212.296875 147.941406 210.136719 150.886719 C 207.976562 153.835938 205.921875 156.851562 203.972656 159.941406 C 202.027344 163.03125 200.1875 166.1875 198.457031 169.402344 C 196.726562 172.621094 195.109375 175.894531 193.609375 179.226562 C 192.109375 182.554688 190.722656 185.933594 189.457031 189.359375 C 188.191406 192.785156 187.042969 196.25 186.019531 199.757812 C 184.992188 203.261719 184.089844 206.800781 183.3125 210.367188 C 182.53125 213.9375 181.875 217.527344 181.347656 221.144531 C 180.816406 224.757812 180.414062 228.386719 180.136719 232.027344 C 179.859375 235.667969 179.710938 239.316406 179.6875 242.96875 C 179.664062 246.621094 179.769531 250.269531 180 253.917969 C 180.230469 257.5625 180.585938 261.195312 181.070312 264.816406 C 181.554688 268.4375 182.164062 272.035156 182.898438 275.613281 C 183.632812 279.191406 184.488281 282.738281 185.46875 286.257812 C 186.453125 289.777344 187.554688 293.257812 188.777344 296.699219 C 190 300.140625 191.339844 303.535156 192.800781 306.886719 C 194.261719 310.234375 195.835938 313.527344 197.523438 316.765625 C 199.210938 320.007812 201.011719 323.183594 202.921875 326.296875 C 204.832031 329.410156 206.847656 332.453125 208.96875 335.429688 C 211.089844 338.402344 213.3125 341.300781 215.636719 344.117188 C 217.960938 346.9375 220.378906 349.671875 222.890625 352.324219 C 221.757812 347.121094 220.890625 341.875 220.289062 336.582031 C 219.6875 331.289062 219.359375 325.980469 219.296875 320.65625 C 219.238281 315.328125 219.449219 310.015625 219.929688 304.710938 C 220.410156 299.40625 221.160156 294.140625 222.175781 288.914062 C 223.191406 283.683594 224.472656 278.523438 226.011719 273.425781 C 227.554688 268.328125 229.351562 263.320312 231.402344 258.40625 C 233.457031 253.488281 235.75 248.691406 238.289062 244.007812 C 240.832031 239.328125 243.601562 234.789062 246.601562 230.386719 Z M 246.601562 230.386719 " fill-opacity="1" fill-rule="nonzero" style="fill: rgb(126, 188, 235);"/>
  <path d="M 164.652344 294.671875 C 163.472656 290.003906 162.511719 285.289062 161.765625 280.53125 C 161.023438 275.773438 160.496094 270.988281 160.191406 266.183594 C 159.886719 261.375 159.804688 256.566406 159.945312 251.75 C 160.082031 246.9375 160.441406 242.140625 161.023438 237.359375 C 161.605469 232.578125 162.402344 227.832031 163.421875 223.125 C 164.441406 218.417969 165.671875 213.765625 167.121094 209.171875 C 168.566406 204.578125 170.222656 200.0625 172.085938 195.621094 C 173.945312 191.179688 176.011719 186.832031 178.273438 182.578125 L 107.179688 144.054688 C 105.046875 147.019531 103.019531 150.054688 101.097656 153.160156 C 99.175781 156.265625 97.363281 159.4375 95.664062 162.667969 C 93.960938 165.902344 92.375 169.1875 90.902344 172.53125 C 89.429688 175.875 88.074219 179.261719 86.839844 182.699219 C 85.601562 186.136719 84.484375 189.613281 83.492188 193.125 C 82.496094 196.640625 81.625 200.183594 80.875 203.761719 C 80.128906 207.335938 79.503906 210.933594 79.007812 214.550781 C 78.511719 218.167969 78.136719 221.800781 77.894531 225.445312 C 77.648438 229.085938 77.53125 232.734375 77.539062 236.386719 C 77.546875 240.039062 77.683594 243.6875 77.945312 247.332031 C 78.207031 250.972656 78.597656 254.601562 79.109375 258.21875 C 79.625 261.835938 80.265625 265.429688 81.03125 269 C 81.796875 272.570312 82.683594 276.109375 83.695312 279.621094 C 84.707031 283.128906 85.839844 286.601562 87.09375 290.03125 C 88.34375 293.460938 89.714844 296.84375 91.203125 300.179688 C 92.691406 303.515625 94.292969 306.796875 96.011719 310.019531 C 97.726562 313.246094 99.554688 316.40625 101.488281 319.503906 C 103.425781 322.601562 105.46875 325.625 107.617188 328.582031 C 109.761719 331.535156 112.007812 334.414062 114.355469 337.210938 C 116.703125 340.011719 119.144531 342.726562 121.683594 345.355469 C 124.21875 347.984375 126.84375 350.523438 129.554688 352.96875 C 132.265625 355.414062 135.0625 357.765625 137.9375 360.019531 C 140.8125 362.269531 143.765625 364.421875 146.792969 366.46875 C 149.816406 368.515625 152.910156 370.453125 156.070312 372.285156 C 159.230469 374.117188 162.453125 375.839844 165.734375 377.449219 C 169.011719 379.054688 172.34375 380.546875 175.730469 381.925781 C 179.113281 383.300781 182.542969 384.558594 186.015625 385.699219 C 189.484375 386.835938 192.992188 387.851562 196.535156 388.746094 C 200.078125 389.640625 203.648438 390.410156 207.242188 391.058594 C 210.839844 391.703125 214.453125 392.222656 218.085938 392.621094 C 221.71875 393.015625 225.359375 393.28125 229.011719 393.425781 C 232.664062 393.566406 236.3125 393.582031 239.964844 393.46875 C 235.324219 390.855469 230.828125 388.011719 226.476562 384.941406 C 222.125 381.867188 217.9375 378.585938 213.921875 375.085938 C 209.902344 371.589844 206.074219 367.898438 202.429688 364.011719 C 198.789062 360.125 195.355469 356.066406 192.125 351.828125 C 188.894531 347.59375 185.890625 343.203125 183.109375 338.664062 C 180.324219 334.121094 177.78125 329.453125 175.472656 324.652344 C 173.167969 319.851562 171.109375 314.945312 169.300781 309.9375 C 167.492188 304.929688 165.945312 299.839844 164.652344 294.671875 Z M 164.652344 294.671875 " fill-opacity="1" fill-rule="nonzero" style="fill: rgb(255, 246, 167);"/>
  <path fill="#40464b" d="M 313.03125 289.246094 C 313.59375 289.253906 314.074219 289.457031 314.472656 289.851562 C 314.921875 290.3125 315.125 290.863281 315.089844 291.507812 L 315.089844 296.457031 C 315.085938 297.011719 314.894531 297.492188 314.515625 297.898438 C 314.097656 298.335938 313.582031 298.542969 312.976562 298.515625 L 272.128906 298.515625 C 271.984375 298.535156 271.84375 298.539062 271.699219 298.527344 C 271.554688 298.511719 271.410156 298.484375 271.273438 298.4375 C 271.136719 298.390625 271.003906 298.332031 270.882812 298.253906 C 270.757812 298.179688 270.644531 298.089844 270.542969 297.984375 C 270.441406 297.882812 270.351562 297.769531 270.273438 297.648438 C 270.199219 297.523438 270.136719 297.394531 270.089844 297.253906 C 270.046875 297.117188 270.015625 296.976562 270.003906 296.832031 C 269.988281 296.6875 269.992188 296.542969 270.011719 296.398438 L 270.011719 229.25 C 270.003906 228.957031 270.054688 228.675781 270.167969 228.40625 C 270.277344 228.136719 270.4375 227.898438 270.648438 227.699219 C 270.859375 227.496094 271.105469 227.347656 271.378906 227.246094 C 271.65625 227.148438 271.9375 227.113281 272.230469 227.132812 L 277.183594 227.132812 C 277.757812 227.117188 278.261719 227.292969 278.695312 227.667969 C 279.15625 228.09375 279.367188 228.625 279.328125 229.25 L 279.328125 289.203125 L 313.046875 289.203125 Z M 313.03125 289.246094 " fill-opacity="1" fill-rule="nonzero"/>
  <path fill="#40464b" d="M 364.789062 284.585938 C 365.085938 284.324219 365.398438 284.082031 365.726562 283.863281 C 365.917969 283.71875 366.128906 283.621094 366.363281 283.566406 C 366.597656 283.515625 366.832031 283.511719 367.066406 283.566406 C 367.300781 283.617188 367.515625 283.714844 367.707031 283.859375 C 367.898438 284.007812 368.046875 284.183594 368.160156 284.398438 L 369.730469 286.511719 C 370.132812 287.058594 370.457031 287.492188 370.707031 287.808594 L 371.285156 288.570312 C 371.441406 288.753906 371.570312 288.957031 371.671875 289.175781 C 371.769531 289.394531 371.820312 289.625 371.816406 289.867188 C 371.796875 290.28125 371.664062 290.65625 371.414062 290.988281 C 371.003906 291.539062 370.523438 292.015625 369.972656 292.429688 C 368.601562 293.507812 367.160156 294.492188 365.65625 295.378906 C 364.152344 296.269531 362.585938 297.03125 360.960938 297.667969 C 359.28125 298.304688 357.558594 298.78125 355.792969 299.105469 C 351.070312 299.988281 346.398438 299.785156 341.769531 298.5 C 339.117188 297.753906 336.609375 296.679688 334.238281 295.277344 C 331.878906 293.890625 329.722656 292.234375 327.773438 290.308594 C 325.824219 288.386719 324.140625 286.25 322.722656 283.910156 C 321.300781 281.542969 320.210938 279.035156 319.453125 276.382812 C 318.675781 273.652344 318.292969 270.871094 318.300781 268.035156 C 318.308594 265.253906 318.667969 262.519531 319.382812 259.832031 C 320.097656 257.144531 321.144531 254.59375 322.519531 252.175781 C 323.855469 249.835938 325.464844 247.703125 327.359375 245.785156 C 329.261719 243.851562 331.390625 242.203125 333.734375 240.835938 C 336.144531 239.433594 338.691406 238.371094 341.378906 237.640625 C 344.210938 236.878906 347.089844 236.503906 350.019531 236.519531 C 352.449219 236.515625 354.847656 236.789062 357.21875 237.339844 C 359.578125 237.878906 361.855469 238.671875 364.042969 239.710938 C 366.238281 240.761719 368.28125 242.054688 370.175781 243.582031 C 372.101562 245.140625 373.808594 246.90625 375.300781 248.878906 C 377.40625 251.738281 378.929688 254.882812 379.863281 258.304688 C 380.929688 262.289062 381.410156 266.34375 381.304688 270.46875 C 381.328125 270.613281 381.335938 270.761719 381.328125 270.914062 C 381.320312 271.0625 381.292969 271.210938 381.25 271.351562 C 381.207031 271.496094 381.148438 271.632812 381.074219 271.761719 C 381 271.894531 380.910156 272.011719 380.808594 272.121094 C 380.703125 272.230469 380.589844 272.328125 380.464844 272.410156 C 380.339844 272.492188 380.210938 272.5625 380.070312 272.613281 C 379.929688 272.667969 379.785156 272.703125 379.636719 272.722656 C 379.484375 272.738281 379.335938 272.742188 379.1875 272.726562 L 328.464844 272.726562 C 329.003906 275.265625 329.964844 277.636719 331.347656 279.835938 C 332.679688 282.011719 334.316406 283.929688 336.253906 285.59375 C 338.167969 287.21875 340.292969 288.484375 342.632812 289.390625 C 344.941406 290.324219 347.34375 290.804688 349.832031 290.832031 C 351.445312 290.847656 353.039062 290.679688 354.613281 290.328125 C 355.960938 290.015625 357.261719 289.566406 358.511719 288.972656 C 359.652344 288.429688 360.730469 287.785156 361.753906 287.046875 C 362.710938 286.324219 363.671875 285.582031 364.632812 284.816406 Z M 338.355469 249.007812 C 335.875 250.679688 333.773438 252.738281 332.050781 255.183594 C 330.277344 257.667969 329.074219 260.402344 328.4375 263.386719 L 371.917969 263.386719 C 371.585938 260.816406 370.761719 258.417969 369.441406 256.191406 C 368.164062 254.023438 366.535156 252.164062 364.558594 250.605469 C 362.558594 249.039062 360.355469 247.84375 357.953125 247.023438 C 355.480469 246.164062 352.9375 245.738281 350.320312 245.742188 C 348.226562 245.746094 346.167969 246.019531 344.144531 246.5625 C 342.097656 247.097656 340.167969 247.914062 338.355469 249.007812 Z M 338.355469 249.007812 " fill-opacity="1" fill-rule="nonzero"/>
  <path fill="#40464b" d="M 440.578125 290.457031 C 437.804688 293.300781 434.597656 295.519531 430.960938 297.121094 C 427.175781 298.777344 423.214844 299.585938 419.082031 299.550781 C 416.265625 299.558594 413.503906 299.183594 410.789062 298.429688 C 408.136719 297.6875 405.628906 296.613281 403.261719 295.207031 C 400.917969 293.8125 398.785156 292.148438 396.859375 290.21875 C 394.933594 288.289062 393.273438 286.152344 391.886719 283.808594 C 390.480469 281.433594 389.40625 278.921875 388.660156 276.265625 C 387.910156 273.539062 387.53125 270.757812 387.53125 267.925781 C 387.53125 265.097656 387.910156 262.316406 388.660156 259.585938 C 389.402344 256.9375 390.476562 254.425781 391.886719 252.058594 C 393.28125 249.722656 394.941406 247.59375 396.867188 245.671875 C 398.796875 243.738281 400.9375 242.085938 403.289062 240.703125 C 405.644531 239.324219 408.132812 238.265625 410.761719 237.523438 C 413.484375 236.765625 416.257812 236.390625 419.082031 236.402344 C 423.214844 236.367188 427.175781 237.179688 430.960938 238.835938 C 434.597656 240.433594 437.804688 242.65625 440.578125 245.5 L 440.578125 239.625 C 440.558594 239.484375 440.554688 239.339844 440.566406 239.195312 C 440.582031 239.050781 440.609375 238.910156 440.65625 238.769531 C 440.703125 238.632812 440.761719 238.503906 440.839844 238.378906 C 440.914062 238.253906 441.003906 238.144531 441.109375 238.039062 C 441.210938 237.9375 441.324219 237.847656 441.445312 237.773438 C 441.570312 237.695312 441.699219 237.632812 441.839844 237.589844 C 441.976562 237.542969 442.117188 237.511719 442.261719 237.5 C 442.40625 237.488281 442.550781 237.492188 442.695312 237.511719 L 447.648438 237.511719 C 447.796875 237.484375 447.945312 237.476562 448.09375 237.488281 C 448.242188 237.496094 448.390625 237.523438 448.53125 237.566406 C 448.675781 237.609375 448.8125 237.667969 448.945312 237.742188 C 449.074219 237.816406 449.191406 237.90625 449.300781 238.007812 C 449.414062 238.109375 449.507812 238.222656 449.589844 238.347656 C 449.675781 238.472656 449.742188 238.605469 449.796875 238.746094 C 449.847656 238.886719 449.882812 239.03125 449.902344 239.179688 C 449.921875 239.328125 449.921875 239.476562 449.90625 239.625 L 449.90625 296.457031 C 449.933594 297.066406 449.730469 297.578125 449.289062 297.996094 C 448.882812 298.375 448.402344 298.570312 447.847656 298.574219 L 442.851562 298.574219 C 442.222656 298.605469 441.6875 298.398438 441.242188 297.953125 C 440.84375 297.554688 440.640625 297.078125 440.636719 296.515625 L 440.636719 290.5 Z M 441.054688 267.90625 C 441.0625 264.910156 440.488281 262.03125 439.324219 259.269531 C 438.210938 256.574219 436.640625 254.175781 434.617188 252.074219 C 432.601562 249.996094 430.273438 248.359375 427.636719 247.167969 C 424.925781 245.933594 422.085938 245.324219 419.113281 245.339844 C 416.148438 245.320312 413.324219 245.929688 410.632812 247.167969 C 408.011719 248.363281 405.703125 250 403.707031 252.074219 C 401.695312 254.179688 400.140625 256.578125 399.042969 259.269531 C 398.476562 260.640625 398.050781 262.050781 397.761719 263.503906 C 397.472656 264.957031 397.328125 266.425781 397.328125 267.90625 C 397.328125 269.386719 397.472656 270.855469 397.761719 272.308594 C 398.050781 273.757812 398.476562 275.171875 399.042969 276.539062 C 400.148438 279.253906 401.703125 281.683594 403.707031 283.820312 C 405.695312 285.9375 408.003906 287.613281 410.632812 288.84375 C 413.316406 290.109375 416.144531 290.734375 419.113281 290.714844 C 422.09375 290.730469 424.933594 290.105469 427.636719 288.84375 C 430.285156 287.617188 432.613281 285.941406 434.617188 283.820312 C 436.632812 281.683594 438.203125 279.257812 439.324219 276.539062 C 440.472656 273.777344 441.035156 270.898438 441.011719 267.90625 Z M 441.054688 267.90625 " fill-opacity="1" fill-rule="nonzero"/>
  <path fill="#40464b" d="M 468.867188 243.957031 C 469.941406 242.027344 471.382812 240.425781 473.1875 239.152344 C 474.277344 238.378906 475.449219 237.757812 476.699219 237.296875 C 478.09375 236.78125 479.535156 236.53125 481.019531 236.546875 C 482.589844 236.539062 484.152344 236.609375 485.714844 236.761719 C 487.0625 236.894531 488.386719 237.148438 489.6875 237.523438 C 490.945312 237.882812 492.15625 238.363281 493.316406 238.964844 C 494.605469 239.664062 495.832031 240.453125 497 241.339844 C 497.445312 241.683594 497.867188 242.050781 498.269531 242.445312 C 498.734375 242.871094 498.964844 243.398438 498.960938 244.03125 C 498.960938 244.375 498.882812 244.695312 498.714844 244.996094 L 495.835938 249.3125 C 495.519531 249.796875 495.074219 250.070312 494.496094 250.132812 C 494.226562 250.128906 493.984375 250.042969 493.777344 249.871094 L 492.957031 249.269531 C 491.171875 248.023438 489.25 247.039062 487.195312 246.320312 C 485.25 245.679688 483.253906 245.367188 481.207031 245.382812 C 479.605469 245.382812 478.066406 245.6875 476.585938 246.300781 C 475.105469 246.914062 473.800781 247.789062 472.667969 248.921875 C 471.480469 250.136719 470.566406 251.535156 469.933594 253.109375 C 469.210938 254.90625 468.867188 256.773438 468.898438 258.710938 L 468.898438 296.457031 C 468.917969 296.601562 468.921875 296.746094 468.910156 296.890625 C 468.894531 297.035156 468.867188 297.175781 468.820312 297.3125 C 468.773438 297.449219 468.710938 297.582031 468.636719 297.703125 C 468.558594 297.828125 468.46875 297.941406 468.367188 298.042969 C 468.265625 298.144531 468.152344 298.234375 468.027344 298.3125 C 467.90625 298.386719 467.773438 298.449219 467.636719 298.496094 C 467.5 298.542969 467.359375 298.570312 467.214844 298.585938 C 467.070312 298.597656 466.925781 298.59375 466.78125 298.574219 L 461.742188 298.574219 C 461.59375 298.597656 461.449219 298.605469 461.300781 298.59375 C 461.152344 298.585938 461.003906 298.558594 460.863281 298.515625 C 460.722656 298.472656 460.585938 298.410156 460.457031 298.335938 C 460.328125 298.261719 460.210938 298.171875 460.105469 298.070312 C 459.996094 297.96875 459.902344 297.855469 459.820312 297.730469 C 459.738281 297.605469 459.675781 297.472656 459.625 297.332031 C 459.574219 297.191406 459.539062 297.046875 459.523438 296.902344 C 459.507812 296.753906 459.507812 296.605469 459.523438 296.457031 L 459.523438 239.625 C 459.496094 239.019531 459.703125 238.503906 460.144531 238.085938 C 460.550781 237.707031 461.027344 237.515625 461.582031 237.511719 L 466.578125 237.511719 C 467.207031 237.480469 467.746094 237.6875 468.191406 238.128906 C 468.585938 238.527344 468.789062 239.007812 468.796875 239.570312 L 468.796875 243.886719 Z M 468.867188 243.957031 " fill-opacity="1" fill-rule="nonzero"/>
  <path fill="#40464b" d="M 514.984375 245.597656 C 515.917969 244.433594 516.925781 243.335938 518.007812 242.304688 C 519.160156 241.207031 520.417969 240.246094 521.777344 239.425781 C 523.238281 238.542969 524.785156 237.851562 526.414062 237.351562 C 528.292969 236.796875 530.214844 236.53125 532.171875 236.5625 C 535.800781 236.488281 539.28125 237.171875 542.613281 238.605469 C 545.550781 239.902344 548.074219 241.765625 550.183594 244.1875 C 552.285156 246.640625 553.824219 249.402344 554.804688 252.476562 C 555.875 255.789062 556.398438 259.1875 556.375 262.667969 L 556.375 295.304688 C 556.449219 296.242188 556.171875 297.058594 555.539062 297.753906 C 554.945312 298.335938 554.230469 298.609375 553.394531 298.574219 L 549.839844 298.574219 C 549.421875 298.640625 549.011719 298.609375 548.609375 298.480469 C 548.207031 298.355469 547.855469 298.144531 547.550781 297.855469 C 547.144531 297.101562 546.976562 296.300781 547.046875 295.449219 L 547.046875 262.667969 C 547.039062 260.671875 546.773438 258.707031 546.253906 256.78125 C 545.738281 254.796875 544.875 252.980469 543.664062 251.328125 C 542.382812 249.621094 540.789062 248.292969 538.882812 247.339844 C 536.570312 246.234375 534.132812 245.722656 531.570312 245.800781 C 529.625 245.816406 527.734375 246.144531 525.898438 246.777344 C 523.945312 247.421875 522.164062 248.378906 520.554688 249.65625 C 518.910156 250.980469 517.585938 252.566406 516.582031 254.421875 C 515.492188 256.449219 514.96875 258.609375 515.011719 260.910156 L 515.011719 296.457031 C 515.03125 296.601562 515.035156 296.746094 515.023438 296.890625 C 515.011719 297.035156 514.980469 297.175781 514.933594 297.3125 C 514.886719 297.449219 514.828125 297.582031 514.75 297.703125 C 514.675781 297.828125 514.585938 297.941406 514.484375 298.042969 C 514.378906 298.144531 514.265625 298.234375 514.144531 298.3125 C 514.019531 298.386719 513.890625 298.449219 513.75 298.496094 C 513.613281 298.542969 513.472656 298.570312 513.328125 298.585938 C 513.183594 298.597656 513.039062 298.59375 512.894531 298.574219 L 507.941406 298.574219 C 507.796875 298.597656 507.648438 298.605469 507.496094 298.597656 C 507.347656 298.589844 507.199219 298.5625 507.058594 298.519531 C 506.914062 298.476562 506.777344 298.417969 506.648438 298.34375 C 506.515625 298.265625 506.398438 298.179688 506.289062 298.078125 C 506.179688 297.972656 506.082031 297.859375 506 297.734375 C 505.914062 297.609375 505.847656 297.476562 505.796875 297.335938 C 505.742188 297.199219 505.707031 297.054688 505.6875 296.902344 C 505.667969 296.753906 505.667969 296.605469 505.683594 296.457031 L 505.683594 239.625 C 505.65625 239.015625 505.867188 238.503906 506.316406 238.085938 C 506.71875 237.707031 507.199219 237.515625 507.757812 237.511719 L 512.75 237.511719 C 513.378906 237.480469 513.917969 237.683594 514.363281 238.128906 C 514.757812 238.527344 514.960938 239.007812 514.96875 239.570312 L 514.96875 245.527344 Z M 514.984375 245.597656 " fill-opacity="1" fill-rule="nonzero"/>
  <path fill="#40464b" d="M 601.539062 229.496094 C 601.515625 229.34375 601.507812 229.1875 601.519531 229.035156 C 601.53125 228.878906 601.558594 228.726562 601.605469 228.578125 C 601.652344 228.433594 601.714844 228.292969 601.792969 228.160156 C 601.875 228.023438 601.964844 227.902344 602.074219 227.789062 C 602.179688 227.679688 602.300781 227.582031 602.429688 227.496094 C 602.5625 227.414062 602.699219 227.34375 602.84375 227.292969 C 602.992188 227.242188 603.140625 227.207031 603.296875 227.191406 C 603.449219 227.171875 603.601562 227.171875 603.757812 227.191406 L 627.65625 227.191406 C 630.722656 227.164062 633.664062 227.761719 636.480469 228.976562 C 637.476562 229.410156 638.429688 229.914062 639.351562 230.484375 C 640.269531 231.058594 641.144531 231.691406 641.96875 232.390625 C 642.796875 233.089844 643.566406 233.847656 644.285156 234.65625 C 645 235.46875 645.65625 236.328125 646.246094 237.234375 C 646.839844 238.144531 647.363281 239.085938 647.816406 240.070312 C 648.269531 241.054688 648.652344 242.0625 648.957031 243.101562 C 649.265625 244.140625 649.496094 245.195312 649.648438 246.265625 C 649.800781 247.339844 649.875 248.417969 649.871094 249.5 C 649.886719 252.417969 649.335938 255.222656 648.214844 257.917969 C 647.675781 259.234375 647.015625 260.488281 646.234375 261.675781 C 645.453125 262.867188 644.566406 263.96875 643.574219 264.988281 C 642.578125 266.007812 641.5 266.925781 640.332031 267.738281 C 639.164062 268.550781 637.925781 269.242188 636.625 269.820312 C 633.847656 271.046875 630.9375 271.648438 627.902344 271.617188 L 610.824219 271.617188 L 610.824219 296.457031 C 610.847656 296.601562 610.851562 296.746094 610.835938 296.890625 C 610.824219 297.035156 610.792969 297.175781 610.75 297.3125 C 610.703125 297.449219 610.640625 297.582031 610.566406 297.703125 C 610.488281 297.828125 610.398438 297.941406 610.296875 298.042969 C 610.195312 298.144531 610.082031 298.234375 609.957031 298.3125 C 609.832031 298.386719 609.703125 298.449219 609.566406 298.496094 C 609.429688 298.542969 609.285156 298.570312 609.140625 298.585938 C 608.996094 298.597656 608.851562 298.59375 608.710938 298.574219 L 603.65625 298.574219 C 603.511719 298.59375 603.367188 298.597656 603.222656 298.585938 C 603.078125 298.570312 602.9375 298.542969 602.800781 298.496094 C 602.664062 298.449219 602.53125 298.386719 602.410156 298.3125 C 602.285156 298.234375 602.171875 298.144531 602.070312 298.042969 C 601.964844 297.941406 601.878906 297.828125 601.800781 297.703125 C 601.722656 297.582031 601.664062 297.449219 601.617188 297.3125 C 601.570312 297.175781 601.542969 297.035156 601.527344 296.890625 C 601.515625 296.746094 601.519531 296.601562 601.539062 296.457031 Z M 640.585938 249.398438 C 640.589844 247.691406 640.253906 246.058594 639.578125 244.492188 C 638.914062 242.929688 637.984375 241.539062 636.796875 240.324219 C 635.609375 239.109375 634.242188 238.152344 632.695312 237.453125 C 631.089844 236.71875 629.40625 236.359375 627.640625 236.375 L 610.824219 236.375 L 610.824219 262.351562 L 627.65625 262.351562 C 629.382812 262.351562 631.035156 261.996094 632.609375 261.285156 C 634.167969 260.585938 635.546875 259.628906 636.742188 258.40625 C 637.960938 257.199219 638.921875 255.8125 639.621094 254.246094 C 640.277344 252.699219 640.597656 251.082031 640.585938 249.398438 Z M 640.585938 249.398438 " fill-opacity="1" fill-rule="nonzero"/>
  <path fill="#40464b" d="M 668.402344 296.457031 C 668.421875 296.601562 668.425781 296.746094 668.410156 296.890625 C 668.398438 297.035156 668.371094 297.175781 668.324219 297.3125 C 668.277344 297.449219 668.214844 297.582031 668.140625 297.703125 C 668.0625 297.828125 667.972656 297.941406 667.871094 298.042969 C 667.769531 298.144531 667.65625 298.234375 667.53125 298.3125 C 667.410156 298.386719 667.277344 298.449219 667.140625 298.496094 C 667.003906 298.542969 666.863281 298.570312 666.71875 298.585938 C 666.574219 298.597656 666.429688 298.59375 666.285156 298.574219 L 661.332031 298.574219 C 661.183594 298.597656 661.035156 298.605469 660.886719 298.597656 C 660.734375 298.589844 660.589844 298.5625 660.445312 298.519531 C 660.300781 298.476562 660.164062 298.417969 660.035156 298.34375 C 659.90625 298.265625 659.785156 298.179688 659.675781 298.078125 C 659.566406 297.972656 659.46875 297.859375 659.386719 297.734375 C 659.304688 297.609375 659.238281 297.476562 659.183594 297.335938 C 659.132812 297.199219 659.097656 297.054688 659.078125 296.902344 C 659.058594 296.753906 659.054688 296.605469 659.070312 296.457031 L 659.070312 221.507812 C 659.042969 220.898438 659.246094 220.386719 659.691406 219.96875 C 660.09375 219.585938 660.574219 219.394531 661.128906 219.390625 L 666.125 219.390625 C 666.753906 219.359375 667.292969 219.566406 667.738281 220.011719 C 668.136719 220.410156 668.335938 220.886719 668.34375 221.449219 L 668.34375 296.457031 Z M 668.402344 296.457031 " fill-opacity="1" fill-rule="nonzero"/>
  <path fill="#40464b" d="M 730.339844 290.457031 C 727.5625 293.300781 724.359375 295.519531 720.71875 297.121094 C 716.933594 298.777344 712.976562 299.585938 708.84375 299.550781 C 706.027344 299.558594 703.261719 299.183594 700.550781 298.429688 C 697.898438 297.6875 695.386719 296.613281 693.019531 295.207031 C 690.675781 293.8125 688.542969 292.148438 686.617188 290.21875 C 684.691406 288.289062 683.035156 286.152344 681.644531 283.808594 C 680.242188 281.433594 679.167969 278.921875 678.421875 276.265625 C 677.667969 273.539062 677.292969 270.757812 677.292969 267.925781 C 677.292969 265.097656 677.667969 262.316406 678.421875 259.585938 C 679.164062 256.9375 680.238281 254.425781 681.644531 252.058594 C 683.039062 249.722656 684.699219 247.59375 686.628906 245.671875 C 688.554688 243.738281 690.695312 242.085938 693.050781 240.703125 C 695.402344 239.324219 697.894531 238.265625 700.519531 237.523438 C 703.242188 236.765625 706.015625 236.390625 708.84375 236.402344 C 712.976562 236.367188 716.933594 237.179688 720.71875 238.835938 C 724.355469 240.433594 727.5625 242.65625 730.339844 245.5 L 730.339844 239.625 C 730.316406 239.484375 730.3125 239.339844 730.328125 239.195312 C 730.339844 239.050781 730.371094 238.910156 730.414062 238.769531 C 730.460938 238.632812 730.523438 238.503906 730.597656 238.378906 C 730.675781 238.253906 730.765625 238.144531 730.867188 238.039062 C 730.96875 237.9375 731.082031 237.847656 731.207031 237.773438 C 731.332031 237.695312 731.460938 237.632812 731.597656 237.589844 C 731.734375 237.542969 731.878906 237.511719 732.023438 237.5 C 732.167969 237.488281 732.3125 237.492188 732.453125 237.511719 L 737.40625 237.511719 C 737.554688 237.484375 737.703125 237.476562 737.851562 237.488281 C 738.003906 237.496094 738.148438 237.523438 738.292969 237.566406 C 738.4375 237.609375 738.574219 237.667969 738.703125 237.742188 C 738.832031 237.816406 738.953125 237.90625 739.0625 238.007812 C 739.171875 238.109375 739.269531 238.222656 739.351562 238.347656 C 739.433594 238.472656 739.503906 238.605469 739.554688 238.746094 C 739.605469 238.886719 739.644531 239.03125 739.664062 239.179688 C 739.679688 239.328125 739.683594 239.476562 739.667969 239.625 L 739.667969 296.457031 C 739.695312 297.066406 739.488281 297.578125 739.046875 297.996094 C 738.644531 298.375 738.164062 298.570312 737.609375 298.574219 L 732.554688 298.574219 C 731.925781 298.605469 731.390625 298.398438 730.941406 297.953125 C 730.546875 297.554688 730.34375 297.078125 730.339844 296.515625 Z M 730.8125 267.90625 C 730.824219 264.910156 730.25 262.03125 729.085938 259.269531 C 727.96875 256.574219 726.402344 254.175781 724.378906 252.074219 C 722.363281 249.996094 720.035156 248.359375 717.394531 247.167969 C 714.6875 245.933594 711.847656 245.324219 708.871094 245.339844 C 705.910156 245.320312 703.082031 245.929688 700.390625 247.167969 C 697.769531 248.363281 695.464844 250 693.464844 252.074219 C 691.457031 254.179688 689.902344 256.578125 688.800781 259.269531 C 688.238281 260.640625 687.808594 262.050781 687.523438 263.503906 C 687.234375 264.957031 687.089844 266.425781 687.089844 267.90625 C 687.089844 269.386719 687.234375 270.855469 687.523438 272.308594 C 687.808594 273.757812 688.238281 275.171875 688.800781 276.539062 C 689.90625 279.253906 691.460938 281.683594 693.464844 283.820312 C 695.453125 285.9375 697.761719 287.613281 700.390625 288.84375 C 703.078125 290.109375 705.902344 290.734375 708.871094 290.714844 C 711.851562 290.730469 714.695312 290.105469 717.394531 288.84375 C 720.042969 287.617188 722.371094 285.941406 724.378906 283.820312 C 726.394531 281.683594 727.964844 279.257812 729.085938 276.539062 C 730.253906 273.78125 730.832031 270.902344 730.828125 267.90625 Z M 730.8125 267.90625 " fill-opacity="1" fill-rule="nonzero"/>
  <path fill="#40464b" d="M 752.710938 239.324219 C 753.316406 240.925781 754.101562 242.960938 755.074219 245.425781 L 758.195312 253.425781 C 759.320312 256.304688 760.480469 259.261719 761.679688 262.292969 C 762.878906 265.324219 764.039062 268.203125 765.152344 270.925781 L 768.1875 278.453125 C 769.148438 280.71875 769.878906 282.503906 770.375 283.808594 C 770.886719 282.492188 771.589844 280.707031 772.492188 278.453125 C 773.394531 276.199219 774.382812 273.6875 775.457031 270.914062 L 778.855469 262.191406 C 780.039062 259.152344 781.183594 256.195312 782.296875 253.328125 L 785.378906 245.324219 L 787.710938 239.222656 C 787.914062 238.703125 788.234375 238.273438 788.675781 237.929688 C 789.148438 237.585938 789.675781 237.429688 790.257812 237.453125 L 795.601562 237.453125 C 797.011719 237.453125 797.71875 238.015625 797.71875 239.136719 C 797.730469 239.246094 797.730469 239.359375 797.71875 239.46875 C 797.679688 239.613281 797.628906 239.757812 797.574219 239.898438 C 797.503906 240.070312 797.457031 240.25 797.429688 240.433594 L 786.128906 268.265625 L 766.894531 315.382812 L 766.894531 315.308594 C 766.8125 315.582031 766.6875 315.828125 766.523438 316.058594 C 766.355469 316.285156 766.15625 316.480469 765.925781 316.644531 C 765.695312 316.804688 765.445312 316.925781 765.171875 317 C 764.902344 317.078125 764.625 317.109375 764.34375 317.09375 L 759.578125 317.09375 C 758.042969 317.09375 757.273438 316.5 757.273438 315.308594 C 757.277344 315.074219 757.3125 314.84375 757.375 314.621094 C 757.371094 314.464844 757.351562 314.3125 757.320312 314.160156 L 765.351562 294.789062 L 743.035156 240.503906 C 743.035156 240.402344 743.035156 240.304688 742.9375 240.171875 C 742.863281 239.855469 742.828125 239.535156 742.835938 239.210938 C 742.835938 238.085938 743.574219 237.523438 745.050781 237.523438 L 750.121094 237.523438 C 750.703125 237.5 751.230469 237.660156 751.703125 238 C 752.164062 238.347656 752.5 238.789062 752.710938 239.324219 Z M 752.710938 239.324219 " fill-opacity="1" fill-rule="nonzero"/>
  <path fill="#40464b" d="M 368.589844 333.945312 C 369.617188 333.941406 370.53125 334.253906 371.339844 334.882812 C 371.773438 335.21875 372.117188 335.632812 372.367188 336.121094 C 372.621094 336.609375 372.757812 337.125 372.78125 337.675781 L 372.78125 346.207031 C 372.792969 347.292969 372.453125 348.253906 371.757812 349.085938 C 371.359375 349.519531 370.886719 349.84375 370.339844 350.058594 C 369.789062 350.273438 369.222656 350.355469 368.636719 350.308594 L 333.433594 350.308594 L 333.433594 455.480469 C 333.441406 456.515625 333.097656 457.417969 332.410156 458.1875 C 332.046875 458.59375 331.613281 458.898438 331.105469 459.105469 C 330.601562 459.3125 330.078125 459.402344 329.53125 459.367188 L 321.082031 459.367188 C 320.03125 459.371094 319.128906 459.007812 318.375 458.273438 C 317.984375 457.917969 317.683594 457.496094 317.476562 457.007812 C 317.273438 456.519531 317.175781 456.011719 317.191406 455.480469 L 317.191406 350.339844 L 281.820312 350.339844 C 280.75 350.382812 279.820312 350.046875 279.027344 349.332031 C 278.628906 348.910156 278.335938 348.429688 278.144531 347.886719 C 277.957031 347.34375 277.882812 346.78125 277.933594 346.207031 L 277.933594 337.675781 C 277.910156 337.164062 277.992188 336.675781 278.183594 336.203125 C 278.375 335.730469 278.65625 335.320312 279.027344 334.96875 C 279.820312 334.25 280.75 333.910156 281.820312 333.945312 Z M 368.589844 333.945312 " fill-opacity="1" fill-rule="nonzero"/>
  <path fill="#40464b" d="M 401.359375 362.917969 C 402.886719 361 404.574219 359.238281 406.429688 357.636719 C 408.269531 356.058594 410.285156 354.75 412.476562 353.707031 C 414.890625 352.574219 417.410156 351.757812 420.035156 351.257812 C 423.273438 350.65625 426.542969 350.375 429.835938 350.410156 C 432.726562 350.371094 435.585938 350.632812 438.417969 351.203125 C 441.25 351.773438 443.988281 352.636719 446.636719 353.789062 C 449.285156 354.941406 451.78125 356.363281 454.125 358.050781 C 456.472656 359.738281 458.613281 361.652344 460.546875 363.792969 C 464.371094 368.089844 467.25 372.945312 469.183594 378.359375 C 471.285156 384.140625 472.3125 390.109375 472.265625 396.261719 L 472.265625 453.609375 C 472.332031 454.398438 472.242188 455.167969 471.992188 455.917969 C 471.742188 456.667969 471.351562 457.335938 470.828125 457.929688 C 470.324219 458.410156 469.746094 458.777344 469.09375 459.027344 C 468.441406 459.277344 467.765625 459.390625 467.070312 459.367188 L 460.820312 459.367188 C 458.738281 459.367188 457.398438 458.945312 456.804688 458.101562 C 456.089844 456.78125 455.792969 455.378906 455.910156 453.882812 L 455.910156 396.320312 C 455.890625 392.777344 455.3125 389.328125 454.183594 385.972656 C 453.042969 382.46875 451.324219 379.273438 449.03125 376.386719 C 446.679688 373.449219 443.832031 371.109375 440.492188 369.378906 C 436.789062 367.492188 432.855469 366.589844 428.699219 366.671875 C 425.363281 366.691406 422.121094 367.265625 418.980469 368.398438 C 415.71875 369.546875 412.777344 371.25 410.15625 373.507812 C 407.457031 375.855469 405.328125 378.644531 403.777344 381.871094 C 402.070312 385.476562 401.257812 389.277344 401.332031 393.269531 L 401.332031 455.667969 C 401.367188 455.921875 401.375 456.171875 401.351562 456.425781 C 401.328125 456.679688 401.277344 456.929688 401.195312 457.171875 C 401.117188 457.414062 401.007812 457.640625 400.875 457.859375 C 400.738281 458.074219 400.582031 458.273438 400.402344 458.453125 C 400.222656 458.632812 400.023438 458.789062 399.808594 458.925781 C 399.589844 459.058594 399.359375 459.164062 399.121094 459.246094 C 398.878906 459.328125 398.628906 459.378906 398.375 459.402344 C 398.121094 459.425781 397.867188 459.417969 397.617188 459.382812 L 388.976562 459.382812 C 386.328125 459.382812 385.003906 458.144531 385.003906 455.667969 L 385.003906 323.902344 C 384.980469 323.394531 385.066406 322.902344 385.253906 322.429688 C 385.445312 321.957031 385.726562 321.546875 386.097656 321.195312 C 386.835938 320.503906 387.710938 320.167969 388.71875 320.1875 L 397.5 320.1875 C 398.039062 320.15625 398.558594 320.234375 399.058594 320.425781 C 399.5625 320.617188 400 320.902344 400.382812 321.28125 C 401.097656 322.007812 401.449219 322.882812 401.433594 323.902344 L 401.433594 362.917969 Z M 401.359375 362.917969 " fill-opacity="1" fill-rule="nonzero"/>
  <path fill="#40464b" d="M 505.28125 363.421875 C 506.089844 361.914062 507.050781 360.507812 508.160156 359.203125 C 509.515625 357.601562 511.050781 356.199219 512.765625 354.988281 C 514.675781 353.632812 516.730469 352.546875 518.929688 351.734375 C 521.382812 350.832031 523.914062 350.394531 526.53125 350.425781 C 529.28125 350.414062 532.027344 350.542969 534.765625 350.8125 C 537.128906 351.050781 539.453125 351.5 541.734375 352.167969 C 543.949219 352.820312 546.074219 353.695312 548.113281 354.785156 C 550.371094 356.019531 552.527344 357.414062 554.574219 358.972656 C 555.363281 359.574219 556.113281 360.222656 556.820312 360.917969 C 557.214844 361.273438 557.515625 361.695312 557.730469 362.183594 C 557.941406 362.667969 558.046875 363.175781 558.046875 363.707031 C 558.054688 364.304688 557.914062 364.867188 557.628906 365.390625 L 552.648438 373.078125 C 552.382812 373.484375 552.042969 373.8125 551.628906 374.0625 C 551.214844 374.316406 550.765625 374.464844 550.285156 374.515625 C 549.808594 374.511719 549.386719 374.359375 549.019531 374.054688 C 548.625 373.75 548.144531 373.398438 547.578125 373.003906 C 544.425781 370.808594 541.03125 369.074219 537.398438 367.808594 C 533.980469 366.691406 530.472656 366.144531 526.875 366.167969 C 525.480469 366.167969 524.101562 366.300781 522.734375 366.570312 C 521.371094 366.839844 520.042969 367.242188 518.753906 367.773438 C 517.46875 368.304688 516.246094 368.957031 515.085938 369.730469 C 513.929688 370.507812 512.859375 371.386719 511.875 372.371094 C 509.777344 374.503906 508.167969 376.953125 507.050781 379.726562 C 505.78125 382.886719 505.179688 386.167969 505.234375 389.570312 L 505.234375 455.699219 C 505.273438 455.949219 505.277344 456.203125 505.257812 456.457031 C 505.234375 456.710938 505.179688 456.957031 505.101562 457.199219 C 505.019531 457.441406 504.914062 457.671875 504.777344 457.886719 C 504.644531 458.105469 504.488281 458.300781 504.308594 458.480469 C 504.128906 458.664062 503.929688 458.820312 503.710938 458.953125 C 503.496094 459.085938 503.265625 459.195312 503.023438 459.273438 C 502.78125 459.355469 502.535156 459.40625 502.28125 459.429688 C 502.027344 459.453125 501.773438 459.445312 501.523438 459.410156 L 492.738281 459.410156 C 490.148438 459.410156 488.851562 458.171875 488.851562 455.699219 L 488.851562 355.894531 C 488.828125 355.382812 488.914062 354.894531 489.105469 354.421875 C 489.296875 353.949219 489.578125 353.539062 489.945312 353.1875 C 490.683594 352.496094 491.558594 352.160156 492.566406 352.179688 L 501.347656 352.179688 C 501.886719 352.148438 502.40625 352.226562 502.90625 352.417969 C 503.410156 352.609375 503.847656 352.894531 504.226562 353.273438 C 504.945312 354 505.296875 354.875 505.28125 355.894531 L 505.28125 363.492188 Z M 505.28125 363.421875 " fill-opacity="1" fill-rule="nonzero"/>
  <path fill="#40464b" d="M 586.292969 332.609375 C 586.328125 332.859375 586.335938 333.113281 586.3125 333.367188 C 586.289062 333.621094 586.238281 333.867188 586.15625 334.109375 C 586.078125 334.351562 585.96875 334.582031 585.835938 334.796875 C 585.703125 335.015625 585.546875 335.214844 585.363281 335.394531 C 585.183594 335.574219 584.984375 335.730469 584.769531 335.863281 C 584.550781 336 584.324219 336.105469 584.082031 336.1875 C 583.839844 336.265625 583.589844 336.320312 583.335938 336.339844 C 583.085938 336.363281 582.832031 336.359375 582.578125 336.320312 L 573.941406 336.320312 C 571.292969 336.320312 569.964844 335.082031 569.964844 332.609375 L 569.964844 323.972656 C 569.941406 323.464844 570.027344 322.972656 570.21875 322.5 C 570.410156 322.027344 570.691406 321.617188 571.0625 321.269531 C 571.796875 320.578125 572.671875 320.242188 573.679688 320.261719 L 582.464844 320.261719 C 583.578125 320.191406 584.535156 320.542969 585.34375 321.3125 C 586.078125 322.046875 586.425781 322.933594 586.394531 323.972656 L 586.394531 332.609375 Z M 586.292969 455.652344 C 586.328125 455.90625 586.335938 456.160156 586.3125 456.414062 C 586.289062 456.667969 586.238281 456.914062 586.15625 457.15625 C 586.078125 457.398438 585.96875 457.628906 585.835938 457.84375 C 585.703125 458.0625 585.546875 458.257812 585.363281 458.4375 C 585.183594 458.621094 584.984375 458.777344 584.769531 458.910156 C 584.550781 459.042969 584.324219 459.152344 584.082031 459.230469 C 583.839844 459.3125 583.589844 459.363281 583.335938 459.386719 C 583.085938 459.410156 582.832031 459.402344 582.578125 459.367188 L 573.941406 459.367188 C 571.292969 459.367188 569.964844 458.128906 569.964844 455.652344 L 569.964844 355.894531 C 569.945312 355.386719 570.027344 354.894531 570.21875 354.421875 C 570.410156 353.949219 570.691406 353.539062 571.0625 353.1875 C 571.796875 352.496094 572.671875 352.160156 573.679688 352.179688 L 582.464844 352.179688 C 583 352.148438 583.519531 352.226562 584.019531 352.417969 C 584.523438 352.609375 584.964844 352.894531 585.34375 353.273438 C 586.058594 354 586.410156 354.875 586.394531 355.894531 L 586.394531 455.710938 Z M 586.292969 455.652344 " fill-opacity="1" fill-rule="nonzero"/>
  <path fill="#40464b" d="M 612.238281 355.230469 C 613.300781 358.042969 614.683594 361.617188 616.382812 365.953125 L 621.867188 380.011719 C 623.835938 385.050781 625.875 390.246094 627.988281 395.597656 C 630.097656 400.953125 632.125 406.046875 634.0625 410.882812 C 635.984375 415.679688 637.757812 420.082031 639.390625 424.09375 C 641.023438 428.105469 642.304688 431.242188 643.234375 433.507812 C 644.136719 431.203125 645.375 428.066406 646.949219 424.09375 C 648.523438 420.121094 650.253906 415.703125 652.144531 410.839844 C 654.066406 405.976562 656.054688 400.867188 658.105469 395.511719 C 660.160156 390.160156 662.175781 384.964844 664.152344 379.925781 C 666.074219 374.890625 667.878906 370.203125 669.566406 365.867188 L 673.671875 355.144531 C 674.023438 354.234375 674.585938 353.476562 675.355469 352.871094 C 676.1875 352.265625 677.117188 351.980469 678.148438 352.023438 L 687.519531 352.023438 C 689.996094 352.023438 691.234375 353.003906 691.234375 354.972656 C 691.230469 355.171875 691.199219 355.371094 691.148438 355.5625 C 691.078125 355.824219 690.992188 356.078125 690.890625 356.324219 C 690.769531 356.628906 690.683594 356.9375 690.628906 357.261719 L 650.503906 456.246094 C 650.324219 456.550781 650.167969 456.875 650.042969 457.207031 C 649.890625 457.59375 649.664062 457.929688 649.367188 458.214844 C 649.011719 458.5625 648.601562 458.828125 648.144531 459.023438 C 647.460938 459.277344 646.753906 459.386719 646.027344 459.351562 L 640.457031 459.351562 C 639.726562 459.386719 639.023438 459.277344 638.339844 459.023438 C 637.882812 458.828125 637.472656 458.5625 637.117188 458.214844 C 636.816406 457.929688 636.59375 457.59375 636.4375 457.207031 C 636.3125 456.875 636.160156 456.550781 635.976562 456.246094 L 595.335938 357.332031 C 595.335938 357.160156 595.21875 356.972656 595.160156 356.742188 C 595.035156 356.1875 594.980469 355.628906 594.988281 355.058594 C 594.988281 353.09375 596.285156 352.109375 598.875 352.109375 L 607.746094 352.109375 C 608.773438 352.070312 609.707031 352.351562 610.539062 352.957031 C 611.308594 353.5625 611.875 354.320312 612.238281 355.230469 Z M 612.238281 355.230469 " fill-opacity="1" fill-rule="nonzero"/>
  <path fill="#40464b" d="M 772.191406 434.785156 C 772.710938 434.328125 773.257812 433.90625 773.832031 433.519531 C 774 433.390625 774.175781 433.28125 774.367188 433.191406 C 774.558594 433.101562 774.753906 433.03125 774.960938 432.984375 C 775.167969 432.9375 775.375 432.914062 775.585938 432.914062 C 775.796875 432.914062 776.003906 432.933594 776.210938 432.980469 C 776.417969 433.023438 776.613281 433.089844 776.804688 433.179688 C 776.996094 433.265625 777.175781 433.375 777.34375 433.5 C 777.511719 433.628906 777.664062 433.773438 777.800781 433.933594 C 777.9375 434.09375 778.054688 434.269531 778.152344 434.457031 L 780.902344 438.167969 C 781.601562 439.128906 782.179688 439.886719 782.628906 440.441406 C 783.082031 441 783.417969 441.449219 783.636719 441.796875 C 783.910156 442.117188 784.132812 442.464844 784.3125 442.847656 C 784.492188 443.234375 784.578125 443.640625 784.574219 444.070312 C 784.539062 444.804688 784.296875 445.46875 783.851562 446.054688 C 783.136719 447 782.308594 447.832031 781.363281 448.542969 C 778.960938 450.445312 776.441406 452.179688 773.804688 453.738281 C 771.167969 455.300781 768.421875 456.636719 765.566406 457.753906 C 762.621094 458.90625 759.589844 459.777344 756.484375 460.375 C 752.390625 461.136719 748.265625 461.433594 744.105469 461.253906 C 739.949219 461.078125 735.863281 460.433594 731.851562 459.324219 C 727.199219 458.011719 722.792969 456.128906 718.632812 453.667969 C 714.496094 451.226562 710.726562 448.3125 707.3125 444.933594 C 703.902344 441.550781 700.957031 437.804688 698.476562 433.691406 C 695.972656 429.542969 694.050781 425.140625 692.71875 420.480469 C 691.347656 415.695312 690.671875 410.8125 690.6875 405.832031 C 690.675781 400.933594 691.289062 396.121094 692.527344 391.382812 C 693.769531 386.644531 695.59375 382.144531 698 377.882812 C 700.347656 373.753906 703.1875 369.996094 706.523438 366.617188 C 709.863281 363.238281 713.582031 360.347656 717.683594 357.953125 C 721.914062 355.492188 726.390625 353.621094 731.117188 352.339844 C 736.109375 350.988281 741.191406 350.328125 746.363281 350.351562 C 750.609375 350.355469 754.804688 350.835938 758.945312 351.792969 C 763.097656 352.746094 767.09375 354.140625 770.9375 355.980469 C 774.792969 357.824219 778.382812 360.089844 781.707031 362.773438 C 785.085938 365.503906 788.085938 368.601562 790.707031 372.070312 C 794.402344 377.089844 797.078125 382.605469 798.726562 388.621094 C 800.574219 395.625 801.390625 402.75 801.171875 409.992188 C 801.171875 412.636719 799.933594 413.960938 797.457031 413.960938 L 708.367188 413.960938 C 709.300781 418.425781 710.976562 422.589844 713.390625 426.453125 C 715.742188 430.265625 718.621094 433.625 722.03125 436.527344 C 725.382812 439.382812 729.113281 441.609375 733.21875 443.207031 C 737.316406 444.8125 741.570312 445.613281 745.972656 445.609375 C 748.8125 445.636719 751.613281 445.339844 754.382812 444.71875 C 756.746094 444.175781 759.027344 443.390625 761.21875 442.355469 C 763.242188 441.40625 765.164062 440.277344 766.980469 438.976562 C 768.726562 437.707031 770.414062 436.398438 772.046875 435.046875 Z M 725.890625 372.300781 C 721.527344 375.234375 717.839844 378.851562 714.816406 383.152344 C 711.710938 387.511719 709.597656 392.308594 708.484375 397.542969 L 784.789062 397.542969 C 784.230469 392.992188 782.792969 388.742188 780.46875 384.792969 C 778.203125 380.984375 775.324219 377.71875 771.832031 374.992188 C 768.3125 372.242188 764.441406 370.144531 760.210938 368.703125 C 755.875 367.203125 751.410156 366.460938 746.824219 366.472656 C 743.140625 366.472656 739.523438 366.953125 735.96875 367.910156 C 732.394531 368.886719 729.035156 370.351562 725.890625 372.300781 Z M 725.890625 372.300781 " fill-opacity="1" fill-rule="nonzero"/>
  <path d="M 154.9375 396.550781 C 150.699219 394.25 146.582031 391.765625 142.574219 389.085938 C 138.570312 386.410156 134.695312 383.554688 130.953125 380.523438 C 127.210938 377.488281 123.613281 374.289062 120.167969 370.925781 C 116.71875 367.5625 113.433594 364.046875 110.308594 360.378906 C 107.183594 356.710938 104.234375 352.910156 101.460938 348.96875 C 98.6875 345.03125 96.101562 340.972656 93.703125 336.796875 C 91.304688 332.621094 89.101562 328.34375 87.097656 323.960938 C 85.089844 319.582031 83.289062 315.121094 81.695312 310.574219 L 5.175781 336.753906 C 5.910156 340.332031 6.769531 343.882812 7.75 347.402344 C 8.734375 350.921875 9.835938 354.402344 11.0625 357.84375 C 12.285156 361.289062 13.628906 364.683594 15.089844 368.03125 C 16.550781 371.382812 18.125 374.675781 19.816406 377.917969 C 21.507812 381.15625 23.308594 384.332031 25.21875 387.449219 C 27.128906 390.5625 29.148438 393.605469 31.269531 396.582031 C 33.394531 399.554688 35.617188 402.453125 37.941406 405.273438 C 40.269531 408.089844 42.6875 410.828125 45.203125 413.476562 C 47.71875 416.128906 50.324219 418.691406 53.019531 421.160156 C 55.710938 423.628906 58.488281 426.003906 61.347656 428.28125 C 64.207031 430.558594 67.140625 432.730469 70.152344 434.804688 C 73.160156 436.878906 76.238281 438.84375 79.386719 440.703125 C 82.535156 442.558594 85.742188 444.308594 89.011719 445.941406 C 92.28125 447.578125 95.601562 449.097656 98.976562 450.503906 C 102.351562 451.90625 105.769531 453.191406 109.234375 454.359375 C 112.699219 455.523438 116.199219 456.570312 119.734375 457.492188 C 123.273438 458.417969 126.835938 459.214844 130.429688 459.890625 C 134.023438 460.566406 137.632812 461.117188 141.265625 461.539062 C 144.894531 461.964844 148.535156 462.261719 152.1875 462.429688 C 155.839844 462.601562 159.492188 462.644531 163.144531 462.5625 C 166.800781 462.480469 170.449219 462.269531 174.085938 461.929688 C 177.726562 461.59375 181.351562 461.132812 184.957031 460.542969 C 188.566406 459.953125 192.148438 459.238281 195.707031 458.402344 C 199.265625 457.5625 202.789062 456.601562 206.28125 455.519531 C 209.769531 454.433594 213.21875 453.230469 216.628906 451.90625 C 220.035156 450.585938 223.390625 449.144531 226.699219 447.585938 C 230.003906 446.03125 233.253906 444.359375 236.445312 442.578125 C 239.636719 440.792969 242.761719 438.902344 245.820312 436.902344 C 248.878906 434.902344 251.863281 432.796875 254.777344 430.589844 C 257.691406 428.382812 260.523438 426.078125 263.273438 423.671875 C 266.027344 421.265625 268.691406 418.769531 271.269531 416.179688 C 273.847656 413.589844 276.332031 410.910156 278.722656 408.148438 C 273.652344 409.789062 268.511719 411.171875 263.300781 412.289062 C 258.085938 413.410156 252.832031 414.261719 247.535156 414.84375 C 242.234375 415.429688 236.921875 415.742188 231.589844 415.789062 C 226.257812 415.832031 220.941406 415.605469 215.632812 415.109375 C 210.324219 414.609375 205.058594 413.84375 199.828125 412.8125 C 194.597656 411.777344 189.433594 410.484375 184.335938 408.921875 C 179.238281 407.363281 174.234375 405.550781 169.320312 403.484375 C 164.410156 401.417969 159.613281 399.105469 154.9375 396.550781 Z M 154.9375 396.550781 " fill-opacity="1" fill-rule="nonzero" style="fill: rgb(215, 166, 216);"/>
  <path fill="#c591c1" d="M 212.582031 487.789062 C 221.683594 487.789062 222.820312 494.265625 222.820312 503.40625 C 222.820312 512.542969 221.683594 519.019531 212.582031 519.019531 C 203.484375 519.019531 202.359375 512.542969 202.359375 503.40625 C 202.359375 494.265625 203.484375 487.789062 212.582031 487.789062 Z M 212.582031 514.558594 C 216.167969 514.558594 216.742188 511.492188 216.742188 503.40625 C 216.742188 495.316406 216.152344 492.25 212.582031 492.25 C 209.011719 492.25 208.421875 495.359375 208.421875 503.40625 C 208.421875 511.449219 208.996094 514.558594 212.582031 514.558594 Z M 212.582031 514.558594 " fill-opacity="1" fill-rule="nonzero"/>
  <path fill="#c591c1" d="M 251.84375 498.527344 C 251.84375 494.207031 250.964844 492.25 248.230469 492.25 C 245.164062 492.25 244.445312 495.316406 244.445312 503.765625 C 244.445312 512.859375 245.710938 514.5 248.316406 514.5 C 250.503906 514.5 252.101562 513.363281 252.101562 506.886719 L 258.164062 506.886719 C 258.164062 513.363281 256.566406 518.960938 248.605469 518.960938 C 239.519531 518.960938 238.382812 512.484375 238.382812 503.347656 C 238.382812 494.207031 239.519531 487.730469 248.605469 487.730469 C 257.242188 487.730469 257.90625 494.09375 257.90625 498.46875 L 251.84375 498.46875 Z M 251.84375 498.527344 " fill-opacity="1" fill-rule="nonzero"/>
  <path fill="#c591c1" d="M 287.074219 498.527344 C 287.074219 494.207031 286.195312 492.25 283.460938 492.25 C 280.378906 492.25 279.675781 495.316406 279.675781 503.765625 C 279.675781 512.859375 280.941406 514.5 283.546875 514.5 C 285.734375 514.5 287.332031 513.363281 287.332031 506.886719 L 293.394531 506.886719 C 293.394531 513.363281 291.796875 518.960938 283.835938 518.960938 C 274.734375 518.960938 273.597656 512.484375 273.597656 503.347656 C 273.597656 494.207031 274.734375 487.730469 283.835938 487.730469 C 292.472656 487.730469 293.136719 494.09375 293.136719 498.46875 L 287.074219 498.46875 Z M 287.074219 498.527344 " fill-opacity="1" fill-rule="nonzero"/>
  <path fill="#c591c1" d="M 315.132812 488.378906 L 315.132812 509.332031 C 315.132812 512.328125 315.855469 514.558594 318.675781 514.558594 C 321.5 514.558594 322.21875 512.328125 322.21875 509.332031 L 322.21875 488.378906 L 328.277344 488.378906 L 328.277344 509.332031 C 328.277344 516.988281 323.613281 519.019531 318.675781 519.019531 C 313.738281 519.019531 309.074219 517.378906 309.074219 509.332031 L 309.074219 488.378906 Z M 315.132812 488.378906 " fill-opacity="1" fill-rule="nonzero"/>
  <path fill="#c591c1" d="M 344.722656 488.378906 L 355.332031 488.378906 C 361.480469 488.378906 363.582031 492.882812 363.582031 497.390625 C 363.582031 503.621094 359.75 506.441406 354.023438 506.441406 L 350.78125 506.441406 L 350.78125 518.429688 L 344.722656 518.429688 Z M 350.78125 501.964844 L 353.472656 501.964844 C 355.878906 501.964844 357.519531 500.527344 357.519531 497.460938 C 357.519531 494.394531 356.339844 492.828125 353.316406 492.828125 L 350.796875 492.828125 L 350.796875 501.949219 Z M 350.78125 501.964844 " fill-opacity="1" fill-rule="nonzero"/>
  <path fill="#c591c1" d="M 382.773438 488.378906 L 390.257812 488.378906 L 398.222656 518.429688 L 391.914062 518.429688 L 390.476562 512.082031 L 382.46875 512.082031 L 381.03125 518.429688 L 374.710938 518.429688 Z M 383.578125 507.089844 L 389.46875 507.089844 L 386.589844 493.574219 L 386.5 493.574219 Z M 383.578125 507.089844 " fill-opacity="1" fill-rule="nonzero"/>
  <path fill="#c591c1" d="M 428.226562 488.378906 L 428.226562 493.34375 L 421.660156 493.34375 L 421.660156 518.429688 L 415.597656 518.429688 L 415.597656 493.34375 L 409.035156 493.34375 L 409.035156 488.378906 Z M 428.226562 488.378906 " fill-opacity="1" fill-rule="nonzero"/>
  <path fill="#c591c1" d="M 443.761719 488.378906 L 449.820312 488.378906 L 449.820312 518.429688 L 443.761719 518.429688 Z M 443.761719 488.378906 " fill-opacity="1" fill-rule="nonzero"/>
  <path fill="#c591c1" d="M 476.570312 487.789062 C 485.65625 487.789062 486.792969 494.265625 486.792969 503.40625 C 486.792969 512.542969 485.65625 519.019531 476.570312 519.019531 C 467.488281 519.019531 466.335938 512.542969 466.335938 503.40625 C 466.335938 494.265625 467.457031 487.789062 476.570312 487.789062 Z M 476.570312 514.558594 C 480.15625 514.558594 480.730469 511.492188 480.730469 503.40625 C 480.730469 495.316406 480.140625 492.25 476.570312 492.25 C 473 492.25 472.410156 495.359375 472.410156 503.40625 C 472.410156 511.449219 472.972656 514.558594 476.570312 514.558594 Z M 476.570312 514.558594 " fill-opacity="1" fill-rule="nonzero"/>
  <path fill="#c591c1" d="M 509.957031 488.378906 L 517.285156 508.960938 L 517.375 508.960938 L 517.375 488.378906 L 522.929688 488.378906 L 522.929688 518.429688 L 516.019531 518.429688 L 508.605469 497.390625 L 508.535156 497.390625 L 508.535156 518.429688 L 502.976562 518.429688 L 502.976562 488.378906 Z M 509.957031 488.378906 " fill-opacity="1" fill-rule="nonzero"/>
  <path fill="#c591c1" d="M 545.679688 488.378906 L 553.164062 488.378906 L 561.125 518.429688 L 554.75 518.429688 L 553.308594 512.082031 L 545.304688 512.082031 L 543.863281 518.429688 L 537.542969 518.429688 Z M 546.484375 507.089844 L 552.375 507.089844 L 549.492188 493.574219 L 549.40625 493.574219 Z M 546.484375 507.089844 " fill-opacity="1" fill-rule="nonzero"/>
  <path fill="#c591c1" d="M 575.78125 518.429688 L 575.78125 488.378906 L 581.84375 488.378906 L 581.84375 513.464844 L 592.585938 513.464844 L 592.585938 518.429688 Z M 575.78125 518.429688 " fill-opacity="1" fill-rule="nonzero"/>
  <path fill="#c591c1" d="M 648.214844 488.378906 L 648.214844 493.34375 L 641.652344 493.34375 L 641.652344 518.429688 L 635.589844 518.429688 L 635.589844 493.34375 L 629.023438 493.34375 L 629.023438 488.378906 Z M 648.214844 488.378906 " fill-opacity="1" fill-rule="nonzero"/>
  <path fill="#c591c1" d="M 663.449219 488.378906 L 669.496094 488.378906 L 669.496094 499.894531 L 676.5625 499.894531 L 676.5625 488.378906 L 682.625 488.378906 L 682.625 518.429688 L 676.5625 518.429688 L 676.5625 505.089844 L 669.496094 505.089844 L 669.496094 518.429688 L 663.449219 518.429688 Z M 663.449219 488.378906 " fill-opacity="1" fill-rule="nonzero"/>
  <path fill="#c591c1" d="M 716.273438 488.378906 L 716.273438 493.34375 L 705.488281 493.34375 L 705.488281 500.410156 L 715.566406 500.410156 L 715.566406 505.375 L 705.488281 505.375 L 705.488281 513.449219 L 716.644531 513.449219 L 716.644531 518.414062 L 699.371094 518.414062 L 699.371094 488.378906 Z M 716.273438 488.378906 " fill-opacity="1" fill-rule="nonzero"/>
  <path fill="#c591c1" d="M 732.339844 488.378906 L 743.539062 488.378906 C 748.507812 488.378906 751.546875 490.984375 751.546875 496.121094 C 751.546875 500.125 749.945312 502.8125 746.535156 503.535156 L 746.535156 503.621094 C 750.667969 504.167969 751.285156 506.5 751.371094 512.789062 C 751.371094 515.9375 751.589844 517.578125 752.726562 518.167969 L 752.726562 518.429688 L 746.160156 518.429688 C 745.601562 517.453125 745.347656 516.402344 745.398438 515.277344 L 745.226562 509.519531 C 745.136719 507.160156 744.085938 505.734375 741.640625 505.734375 L 738.402344 505.734375 L 738.402344 518.441406 L 732.339844 518.441406 Z M 738.402344 501.503906 L 740.921875 501.503906 C 743.800781 501.503906 745.46875 500.238281 745.46875 497 C 745.503906 496.71875 745.507812 496.433594 745.480469 496.148438 C 745.449219 495.863281 745.386719 495.585938 745.292969 495.316406 C 745.199219 495.046875 745.078125 494.792969 744.925781 494.550781 C 744.773438 494.308594 744.597656 494.085938 744.394531 493.886719 C 744.191406 493.683594 743.964844 493.507812 743.722656 493.359375 C 743.480469 493.210938 743.222656 493.089844 742.949219 493 C 742.679688 492.910156 742.402344 492.851562 742.117188 492.824219 C 741.832031 492.796875 741.546875 492.800781 741.265625 492.839844 L 738.386719 492.839844 L 738.386719 501.476562 Z M 738.402344 501.503906 " fill-opacity="1" fill-rule="nonzero"/>
  <path fill="#c591c1" d="M 774.222656 488.378906 L 781.707031 488.378906 L 789.667969 518.429688 L 783.363281 518.429688 L 781.921875 512.082031 L 773.917969 512.082031 L 772.480469 518.429688 L 766.160156 518.429688 Z M 775.027344 507.089844 L 780.914062 507.089844 L 778.035156 493.574219 L 777.949219 493.574219 Z M 775.027344 507.089844 " fill-opacity="1" fill-rule="nonzero"/>
  <path fill="#c591c1" d="M 804.398438 488.378906 L 815.007812 488.378906 C 821.15625 488.378906 823.257812 492.882812 823.257812 497.390625 C 823.257812 503.621094 819.429688 506.441406 813.699219 506.441406 L 810.457031 506.441406 L 810.457031 518.429688 L 804.398438 518.429688 Z M 810.457031 501.964844 L 813.152344 501.964844 C 815.554688 501.964844 817.195312 500.527344 817.195312 497.460938 C 817.195312 494.394531 816.015625 492.828125 812.992188 492.828125 L 810.472656 492.828125 L 810.472656 501.949219 Z M 810.457031 501.964844 " fill-opacity="1" fill-rule="nonzero"/>
  <path fill="#c591c1" d="M 843.703125 488.378906 L 847.660156 499.992188 L 847.746094 499.992188 L 851.953125 488.378906 L 858.515625 488.378906 L 850.726562 506.597656 L 850.726562 518.429688 L 844.667969 518.429688 L 844.667969 506.597656 L 836.878906 488.378906 Z M 843.703125 488.378906 " fill-opacity="1" fill-rule="nonzero"/>
  <g clip-path="url(#1aadce44e8)">
    <path fill="#ffffff" d="M 0.527344 475.09375 L 959.777344 475.09375 L 959.777344 667.242188 L 0.527344 667.242188 Z M 0.527344 475.09375 " fill-opacity="1" fill-rule="nonzero"/>
  </g>
  <g fill="#b37ab4" fill-opacity="1">
    <g transform="translate(242.716975, 532.100677)">
      <g>
        <path d="M 28.828125 -38.0625 L 28.828125 -29.640625 L 13.609375 -29.640625 L 13.609375 -22.9375 L 24.828125 -22.9375 L 24.828125 -14.90625 L 13.609375 -14.90625 L 13.609375 0 L 3.015625 0 L 3.015625 -38.0625 Z M 28.828125 -38.0625 " style="fill: rgb(215, 166, 216);"/>
      </g>
    </g>
  </g>
  <g fill="#b37ab4" fill-opacity="1">
    <g transform="translate(277.807096, 532.100677)">
      <g>
        <path d="M 21.265625 0.375 C 17.703125 0.375 14.425781 -0.457031 11.4375 -2.125 C 8.457031 -3.800781 6.09375 -6.125 4.34375 -9.09375 C 2.601562 -12.0625 1.734375 -15.421875 1.734375 -19.171875 C 1.734375 -22.910156 2.601562 -26.265625 4.34375 -29.234375 C 6.09375 -32.203125 8.457031 -34.515625 11.4375 -36.171875 C 14.425781 -37.828125 17.703125 -38.65625 21.265625 -38.65625 C 24.867188 -38.65625 28.15625 -37.828125 31.125 -36.171875 C 34.09375 -34.515625 36.441406 -32.203125 38.171875 -29.234375 C 39.898438 -26.265625 40.765625 -22.910156 40.765625 -19.171875 C 40.765625 -15.421875 39.898438 -12.0625 38.171875 -9.09375 C 36.441406 -6.125 34.082031 -3.800781 31.09375 -2.125 C 28.101562 -0.457031 24.828125 0.375 21.265625 0.375 Z M 21.265625 -9.453125 C 23.960938 -9.453125 26.09375 -10.332031 27.65625 -12.09375 C 29.226562 -13.851562 30.015625 -16.210938 30.015625 -19.171875 C 30.015625 -22.191406 29.226562 -24.570312 27.65625 -26.3125 C 26.09375 -28.0625 23.960938 -28.9375 21.265625 -28.9375 C 18.535156 -28.9375 16.394531 -28.0625 14.84375 -26.3125 C 13.300781 -24.570312 12.53125 -22.191406 12.53125 -19.171875 C 12.53125 -16.179688 13.300781 -13.8125 14.84375 -12.0625 C 16.394531 -10.320312 18.535156 -9.453125 21.265625 -9.453125 Z M 21.265625 -9.453125 " style="fill: rgb(215, 166, 216);"/>
      </g>
    </g>
  </g>
  <g fill="#b37ab4" fill-opacity="1">
    <g transform="translate(325.097535, 532.100677)">
      <g>
        <path d="M 22.296875 0 L 14.734375 -14.03125 L 13.609375 -14.03125 L 13.609375 0 L 3.015625 0 L 3.015625 -38.0625 L 19.703125 -38.0625 C 22.765625 -38.0625 25.351562 -37.53125 27.46875 -36.46875 C 29.59375 -35.40625 31.195312 -33.945312 32.28125 -32.09375 C 33.363281 -30.238281 33.90625 -28.160156 33.90625 -25.859375 C 33.90625 -23.265625 33.191406 -20.988281 31.765625 -19.03125 C 30.347656 -17.070312 28.269531 -15.675781 25.53125 -14.84375 L 34.125 0 Z M 13.609375 -21.265625 L 18.84375 -21.265625 C 20.28125 -21.265625 21.359375 -21.609375 22.078125 -22.296875 C 22.796875 -22.984375 23.15625 -23.972656 23.15625 -25.265625 C 23.15625 -26.484375 22.785156 -27.441406 22.046875 -28.140625 C 21.316406 -28.847656 20.25 -29.203125 18.84375 -29.203125 L 13.609375 -29.203125 Z M 13.609375 -21.265625 " style="fill: rgb(215, 166, 216);"/>
      </g>
    </g>
  </g>
  <g fill="#b37ab4" fill-opacity="1">
    <g transform="translate(365.58602, 532.100677)">
      <g/>
    </g>
  </g>
  <g fill="#b37ab4" fill-opacity="1">
    <g transform="translate(380.702155, 532.100677)">
      <g>
        <path d="M 33.09375 -25.375 C 33.09375 -23.070312 32.5625 -20.972656 31.5 -19.078125 C 30.4375 -17.191406 28.832031 -15.679688 26.6875 -14.546875 C 24.550781 -13.410156 21.9375 -12.84375 18.84375 -12.84375 L 13.609375 -12.84375 L 13.609375 0 L 3.015625 0 L 3.015625 -38.0625 L 18.84375 -38.0625 C 21.894531 -38.0625 24.492188 -37.519531 26.640625 -36.4375 C 28.785156 -35.351562 30.394531 -33.859375 31.46875 -31.953125 C 32.550781 -30.046875 33.09375 -27.851562 33.09375 -25.375 Z M 17.8125 -21.265625 C 20.800781 -21.265625 22.296875 -22.632812 22.296875 -25.375 C 22.296875 -28.144531 20.800781 -29.53125 17.8125 -29.53125 L 13.609375 -29.53125 L 13.609375 -21.265625 Z M 17.8125 -21.265625 " style="fill: rgb(215, 166, 216);"/>
      </g>
    </g>
  </g>
  <g fill="#b37ab4" fill-opacity="1">
    <g transform="translate(419.841049, 532.100677)">
      <g>
        <path d="M 27.09375 -6.203125 L 13.609375 -6.203125 L 11.546875 0 L 0.4375 0 L 14.3125 -38.0625 L 26.5 -38.0625 L 40.328125 0 L 29.15625 0 Z M 24.453125 -14.3125 L 20.359375 -26.609375 L 16.296875 -14.3125 Z M 24.453125 -14.3125 " style="fill: rgb(215, 166, 216);"/>
      </g>
    </g>
  </g>
  <g fill="#b37ab4" fill-opacity="1">
    <g transform="translate(465.404009, 532.100677)">
      <g>
        <path d="M 22.296875 0 L 14.734375 -14.03125 L 13.609375 -14.03125 L 13.609375 0 L 3.015625 0 L 3.015625 -38.0625 L 19.703125 -38.0625 C 22.765625 -38.0625 25.351562 -37.53125 27.46875 -36.46875 C 29.59375 -35.40625 31.195312 -33.945312 32.28125 -32.09375 C 33.363281 -30.238281 33.90625 -28.160156 33.90625 -25.859375 C 33.90625 -23.265625 33.191406 -20.988281 31.765625 -19.03125 C 30.347656 -17.070312 28.269531 -15.675781 25.53125 -14.84375 L 34.125 0 Z M 13.609375 -21.265625 L 18.84375 -21.265625 C 20.28125 -21.265625 21.359375 -21.609375 22.078125 -22.296875 C 22.796875 -22.984375 23.15625 -23.972656 23.15625 -25.265625 C 23.15625 -26.484375 22.785156 -27.441406 22.046875 -28.140625 C 21.316406 -28.847656 20.25 -29.203125 18.84375 -29.203125 L 13.609375 -29.203125 Z M 13.609375 -21.265625 " style="fill: rgb(215, 166, 216);"/>
      </g>
    </g>
  </g>
  <g fill="#b37ab4" fill-opacity="1">
    <g transform="translate(505.892494, 532.100677)">
      <g>
        <path d="M 13.609375 -29.578125 L 13.609375 -23.375 L 25.75 -23.375 L 25.75 -15.328125 L 13.609375 -15.328125 L 13.609375 -8.46875 L 27.375 -8.46875 L 27.375 0 L 3.015625 0 L 3.015625 -38.0625 L 27.375 -38.0625 L 27.375 -29.578125 Z M 13.609375 -29.578125 " style="fill: rgb(215, 166, 216);"/>
      </g>
    </g>
  </g>
  <g fill="#b37ab4" fill-opacity="1">
    <g transform="translate(540.280838, 532.100677)">
      <g>
        <path d="M 38.28125 0 L 27.6875 0 L 13.609375 -21.265625 L 13.609375 0 L 3.015625 0 L 3.015625 -38.0625 L 13.609375 -38.0625 L 27.6875 -16.515625 L 27.6875 -38.0625 L 38.28125 -38.0625 Z M 38.28125 0 " style="fill: rgb(215, 166, 216);"/>
      </g>
    </g>
  </g>
  <g fill="#b37ab4" fill-opacity="1">
    <g transform="translate(586.383636, 532.100677)">
      <g>
        <path d="M 31.6875 -38.0625 L 31.6875 -29.640625 L 21.546875 -29.640625 L 21.546875 0 L 10.953125 0 L 10.953125 -29.640625 L 0.921875 -29.640625 L 0.921875 -38.0625 Z M 31.6875 -38.0625 " style="fill: rgb(215, 166, 216);"/>
      </g>
    </g>
  </g>
  <g fill="#b37ab4" fill-opacity="1">
    <g transform="translate(623.795062, 532.100677)">
      <g>
        <path d="M 17.390625 0.375 C 12.960938 0.375 9.328125 -0.675781 6.484375 -2.78125 C 3.640625 -4.882812 2.109375 -7.898438 1.890625 -11.828125 L 13.171875 -11.828125 C 13.273438 -10.492188 13.671875 -9.519531 14.359375 -8.90625 C 15.046875 -8.289062 15.925781 -7.984375 17 -7.984375 C 17.976562 -7.984375 18.78125 -8.226562 19.40625 -8.71875 C 20.039062 -9.207031 20.359375 -9.882812 20.359375 -10.75 C 20.359375 -11.863281 19.832031 -12.722656 18.78125 -13.328125 C 17.738281 -13.941406 16.050781 -14.628906 13.71875 -15.390625 C 11.226562 -16.210938 9.21875 -17.007812 7.6875 -17.78125 C 6.164062 -18.5625 4.835938 -19.695312 3.703125 -21.1875 C 2.566406 -22.675781 2 -24.628906 2 -27.046875 C 2 -29.492188 2.609375 -31.585938 3.828125 -33.328125 C 5.054688 -35.078125 6.75 -36.398438 8.90625 -37.296875 C 11.0625 -38.203125 13.507812 -38.65625 16.25 -38.65625 C 20.675781 -38.65625 24.210938 -37.617188 26.859375 -35.546875 C 29.503906 -33.472656 30.914062 -30.566406 31.09375 -26.828125 L 19.59375 -26.828125 C 19.5625 -27.984375 19.210938 -28.847656 18.546875 -29.421875 C 17.878906 -29.992188 17.023438 -30.28125 15.984375 -30.28125 C 15.191406 -30.28125 14.539062 -30.046875 14.03125 -29.578125 C 13.53125 -29.109375 13.28125 -28.445312 13.28125 -27.59375 C 13.28125 -26.863281 13.554688 -26.238281 14.109375 -25.71875 C 14.671875 -25.195312 15.363281 -24.75 16.1875 -24.375 C 17.019531 -24 18.242188 -23.519531 19.859375 -22.9375 C 22.273438 -22.113281 24.265625 -21.296875 25.828125 -20.484375 C 27.398438 -19.671875 28.75 -18.535156 29.875 -17.078125 C 31.007812 -15.628906 31.578125 -13.785156 31.578125 -11.546875 C 31.578125 -9.285156 31.007812 -7.253906 29.875 -5.453125 C 28.75 -3.648438 27.113281 -2.226562 24.96875 -1.1875 C 22.820312 -0.144531 20.296875 0.375 17.390625 0.375 Z M 17.390625 0.375 " style="fill: rgb(215, 166, 216);"/>
      </g>
    </g>
  </g>
  <ellipse style="fill: rgb(215, 166, 216); stroke: rgb(215, 166, 216);" cx="578.216" cy="267.841" rx="8.225" ry="8.225"/>
</svg>