<svg xmlns="http://www.w3.org/2000/svg" xmlns:xlink="http://www.w3.org/1999/xlink" width="1200" zoomAndPan="magnify" viewBox="0 0 900 641.24998" height="855" preserveAspectRatio="xMidYMid meet" version="1.0"><defs><g/><clipPath id="f3587cdf3d"><path d="M 0.527344 0 L 899.472656 0 L 899.472656 640.5 L 0.527344 640.5 Z M 0.527344 0 " clip-rule="nonzero"/></clipPath><clipPath id="725212c649"><path d="M 127 475.09375 L 899.472656 475.09375 L 899.472656 611.433594 L 127 611.433594 Z M 127 475.09375 " clip-rule="nonzero"/></clipPath><clipPath id="c343fdf2fe"><path d="M 0.527344 475.09375 L 899.472656 475.09375 L 899.472656 640.5 L 0.527344 640.5 Z M 0.527344 475.09375 " clip-rule="nonzero"/></clipPath><clipPath id="f9b2e92199"><path d="M 0.871094 0 L 898.425781 0 L 898.425781 639.75 L 0.871094 639.75 Z M 0.871094 0 " clip-rule="nonzero"/></clipPath></defs><g clip-path="url(#f3587cdf3d)"><path fill="#ffffff" d="M 0.527344 0 L 899.472656 0 L 899.472656 640.5 L 0.527344 640.5 Z M 0.527344 0 " fill-opacity="1" fill-rule="nonzero"/><path fill="#ffffff" d="M 0.527344 0 L 899.472656 0 L 899.472656 640.5 L 0.527344 640.5 Z M 0.527344 0 " fill-opacity="1" fill-rule="nonzero"/></g><g clip-path="url(#725212c649)"><path fill="#ffffff" d="M 127.488281 475.132812 L 536.203125 475.136719 L 944.914062 475.136719 C 944.914062 520.605469 944.914062 566.074219 944.914062 611.542969 C 672.4375 611.542969 399.964844 611.542969 127.488281 611.542969 C 127.488281 566.074219 127.488281 520.605469 127.488281 475.132812 " fill-opacity="1" fill-rule="nonzero"/></g><g clip-path="url(#c343fdf2fe)"><path fill="#ffffff" d="M 0.527344 475.09375 L 959.777344 475.09375 L 959.777344 667.242188 L 0.527344 667.242188 Z M 0.527344 475.09375 " fill-opacity="1" fill-rule="nonzero"/></g><g clip-path="url(#f9b2e92199)"><path fill="#ffffff" d="M 0.871094 0 L 898.425781 0 L 898.425781 639.75 L 0.871094 639.75 Z M 0.871094 0 " fill-opacity="1" fill-rule="nonzero"/><path fill="#ffffff" d="M 0.871094 0 L 898.425781 0 L 898.425781 639.75 L 0.871094 639.75 Z M 0.871094 0 " fill-opacity="1" fill-rule="nonzero"/></g><path stroke-linecap="butt" transform="matrix(1.437505, 0, 0, 1.437449, -3.946588, 49.302331)" fill-opacity="1" fill="#c591c1" fill-rule="nonzero" stroke-linejoin="miter" d="M 401.170647 151.488024 C 401.170647 150.977137 401.273907 150.482554 401.477711 150.009711 C 401.882601 149.08033 402.551076 148.414545 403.480421 148.009639 C 403.95868 147.800393 404.458678 147.697128 404.977698 147.697128 C 405.502153 147.697128 406.002151 147.800393 406.48041 148.009639 C 407.409755 148.414545 408.07823 149.08033 408.477686 150.009711 C 408.689641 150.487989 408.792902 150.990724 408.792902 151.509764 C 408.792902 152.031522 408.689641 152.53154 408.477686 153.009818 C 408.07823 153.939199 407.409755 154.607701 406.48041 155.009889 C 406.002151 155.221853 405.502153 155.325118 404.977698 155.325118 C 404.458678 155.325118 403.95868 155.221853 403.480421 155.009889 C 402.551076 154.607701 401.882601 153.939199 401.477711 153.009818 C 401.268472 152.526105 401.165212 152.017935 401.170647 151.488024 Z M 401.170647 151.488024 " stroke="#c591c1" stroke-width="4" stroke-opacity="1" stroke-miterlimit="10"/><path fill="#a6aaae" d="M 796.671875 458.875 C 796.683594 459.554688 796.539062 460.199219 796.242188 460.8125 C 796 461.339844 795.628906 461.746094 795.132812 462.039062 L 794.957031 462.039062 C 794.859375 462.042969 794.78125 462.011719 794.71875 461.9375 L 794.214844 461.445312 C 794.128906 461.363281 794.089844 461.265625 794.097656 461.144531 C 794.101562 461.039062 794.140625 460.949219 794.214844 460.871094 L 794.472656 460.554688 C 794.574219 460.425781 794.660156 460.285156 794.734375 460.136719 C 794.808594 459.96875 794.847656 459.792969 794.84375 459.605469 L 794.84375 459.164062 C 794.851562 459.085938 794.828125 459.015625 794.773438 458.960938 L 794.601562 458.859375 C 794.460938 458.882812 794.332031 458.847656 794.222656 458.75 C 794.113281 458.652344 794.0625 458.53125 794.070312 458.386719 L 794.070312 456.945312 C 794.0625 456.777344 794.121094 456.632812 794.242188 456.515625 C 794.359375 456.40625 794.5 456.351562 794.660156 456.355469 L 796.097656 456.355469 C 796.277344 456.347656 796.429688 456.402344 796.558594 456.53125 C 796.671875 456.652344 796.722656 456.792969 796.714844 456.960938 L 796.714844 458.945312 Z M 796.671875 458.875 " fill-opacity="1" fill-rule="nonzero"/><path fill="#a6aaae" d="M 816.625 456.257812 C 816.789062 456.253906 816.925781 456.3125 817.042969 456.429688 C 817.164062 456.558594 817.222656 456.710938 817.214844 456.890625 L 817.214844 458.328125 C 817.21875 458.488281 817.164062 458.628906 817.054688 458.746094 C 816.9375 458.867188 816.792969 458.925781 816.625 458.917969 L 805.121094 458.917969 C 805.039062 458.929688 804.960938 458.925781 804.882812 458.898438 C 804.808594 458.871094 804.738281 458.832031 804.683594 458.773438 C 804.625 458.714844 804.582031 458.644531 804.554688 458.566406 C 804.53125 458.488281 804.523438 458.410156 804.535156 458.328125 L 804.535156 439.480469 C 804.53125 439.308594 804.589844 439.167969 804.714844 439.050781 C 804.835938 438.933594 804.980469 438.882812 805.152344 438.894531 L 806.589844 438.894531 C 806.75 438.890625 806.886719 438.9375 807.007812 439.039062 C 807.136719 439.160156 807.195312 439.304688 807.179688 439.480469 L 807.179688 456.269531 L 816.609375 456.269531 Z M 816.625 456.257812 " fill-opacity="1" fill-rule="nonzero"/><path fill="#a6aaae" d="M 834.652344 456.257812 C 834.816406 456.253906 834.953125 456.3125 835.070312 456.429688 C 835.1875 456.558594 835.246094 456.710938 835.238281 456.890625 L 835.238281 458.328125 C 835.242188 458.488281 835.1875 458.628906 835.082031 458.746094 C 834.964844 458.867188 834.820312 458.925781 834.652344 458.917969 L 823.148438 458.917969 C 823.066406 458.929688 822.988281 458.925781 822.910156 458.898438 C 822.832031 458.871094 822.761719 458.832031 822.703125 458.773438 C 822.648438 458.714844 822.605469 458.644531 822.578125 458.566406 C 822.554688 458.488281 822.546875 458.410156 822.558594 458.328125 L 822.558594 439.480469 C 822.554688 439.308594 822.613281 439.167969 822.738281 439.050781 C 822.859375 438.933594 823.007812 438.882812 823.179688 438.894531 L 824.617188 438.894531 C 824.773438 438.890625 824.914062 438.9375 825.035156 439.039062 C 825.160156 439.160156 825.214844 439.304688 825.203125 439.480469 L 825.203125 456.269531 L 834.636719 456.269531 Z M 834.652344 456.257812 " fill-opacity="1" fill-rule="nonzero"/><path fill="#a6aaae" d="M 854.964844 440.574219 C 855.058594 440.640625 855.140625 440.722656 855.207031 440.820312 C 855.269531 440.90625 855.304688 441 855.308594 441.105469 C 855.3125 441.222656 855.277344 441.328125 855.207031 441.421875 L 854.488281 442.601562 C 854.382812 442.789062 854.226562 442.894531 854.011719 442.917969 C 853.941406 442.929688 853.867188 442.929688 853.796875 442.917969 L 853.539062 442.757812 C 852.90625 442.3125 852.230469 441.960938 851.496094 441.710938 C 850.765625 441.464844 850.015625 441.320312 849.242188 441.28125 C 848.164062 441.269531 847.132812 441.460938 846.132812 441.863281 C 845.140625 442.265625 844.257812 442.839844 843.488281 443.59375 C 842.769531 444.300781 842.210938 445.113281 841.808594 446.035156 C 841.410156 446.953125 841.207031 447.914062 841.203125 448.914062 C 841.195312 449.964844 841.402344 450.976562 841.824219 451.945312 C 842.164062 452.707031 842.613281 453.394531 843.175781 454.011719 C 843.742188 454.625 844.390625 455.136719 845.121094 455.539062 C 845.847656 455.9375 846.625 456.210938 847.449219 456.359375 C 848.265625 456.507812 849.089844 456.523438 849.917969 456.398438 C 850.296875 456.34375 850.671875 456.253906 851.035156 456.125 C 851.445312 455.984375 851.84375 455.820312 852.230469 455.625 C 852.6875 455.402344 853.125 455.152344 853.550781 454.878906 C 853.679688 454.796875 853.820312 454.746094 853.96875 454.734375 C 854.179688 454.761719 854.332031 454.871094 854.417969 455.066406 L 855.179688 456.328125 C 855.238281 456.425781 855.273438 456.53125 855.28125 456.644531 C 855.28125 456.882812 855.175781 457.054688 854.964844 457.164062 C 854.105469 457.785156 853.175781 458.261719 852.175781 458.601562 C 850.761719 459.074219 849.324219 459.230469 847.84375 459.078125 C 846.367188 458.925781 844.988281 458.472656 843.707031 457.722656 C 842.945312 457.273438 842.257812 456.738281 841.636719 456.113281 C 841.238281 455.714844 840.875 455.285156 840.546875 454.828125 C 840.21875 454.367188 839.933594 453.886719 839.683594 453.378906 C 839.4375 452.871094 839.230469 452.351562 839.070312 451.8125 C 838.90625 451.269531 838.789062 450.71875 838.71875 450.160156 C 838.644531 449.601562 838.621094 449.042969 838.640625 448.480469 C 838.660156 447.914062 838.726562 447.355469 838.839844 446.804688 C 838.953125 446.25 839.109375 445.714844 839.3125 445.1875 C 839.515625 444.660156 839.757812 444.152344 840.042969 443.664062 C 840.488281 442.902344 841.027344 442.210938 841.652344 441.582031 C 842.277344 440.953125 842.96875 440.414062 843.734375 439.96875 C 844.511719 439.519531 845.328125 439.179688 846.191406 438.9375 C 848.179688 438.394531 850.15625 438.4375 852.117188 439.066406 C 853.140625 439.421875 854.089844 439.925781 854.964844 440.574219 Z M 854.964844 440.574219 " fill-opacity="1" fill-rule="nonzero"/><path fill="#7ebceb" d="M 246.566406 230.117188 C 249.265625 226.132812 252.140625 222.28125 255.191406 218.5625 C 258.246094 214.84375 261.464844 211.269531 264.84375 207.847656 C 268.226562 204.425781 271.761719 201.164062 275.441406 198.066406 C 279.125 194.96875 282.941406 192.042969 286.894531 189.296875 C 290.84375 186.550781 294.917969 183.992188 299.105469 181.625 C 303.289062 179.25 307.582031 177.078125 311.96875 175.101562 C 316.355469 173.125 320.824219 171.355469 325.371094 169.789062 C 329.925781 168.226562 334.539062 166.875 339.214844 165.734375 L 320.726562 87.191406 C 317.101562 87.574219 313.488281 88.078125 309.894531 88.707031 C 306.300781 89.339844 302.730469 90.09375 299.191406 90.972656 C 295.652344 91.851562 292.148438 92.851562 288.671875 93.976562 C 285.199219 95.101562 281.773438 96.339844 278.390625 97.703125 C 275.003906 99.0625 271.671875 100.539062 268.386719 102.132812 C 265.105469 103.726562 261.882812 105.429688 258.71875 107.25 C 255.554688 109.066406 252.457031 110.992188 249.429688 113.023438 C 246.402344 115.058594 243.445312 117.195312 240.5625 119.429688 C 237.679688 121.671875 234.878906 124.007812 232.160156 126.4375 C 229.441406 128.871094 226.816406 131.398438 224.273438 134.011719 C 221.730469 136.628906 219.28125 139.328125 216.921875 142.117188 C 214.566406 144.90625 212.3125 147.769531 210.15625 150.710938 C 208 153.65625 205.949219 156.667969 204.003906 159.753906 C 202.058594 162.839844 200.222656 165.992188 198.496094 169.203125 C 196.765625 172.417969 195.152344 175.6875 193.65625 179.015625 C 192.15625 182.339844 190.773438 185.714844 189.507812 189.136719 C 188.246094 192.558594 187.097656 196.019531 186.078125 199.523438 C 185.050781 203.023438 184.148438 206.558594 183.375 210.121094 C 182.59375 213.6875 181.9375 217.273438 181.414062 220.886719 C 180.882812 224.496094 180.480469 228.121094 180.203125 231.757812 C 179.925781 235.394531 179.777344 239.035156 179.753906 242.683594 C 179.730469 246.332031 179.835938 249.976562 180.066406 253.621094 C 180.296875 257.261719 180.652344 260.890625 181.136719 264.507812 C 181.617188 268.125 182.226562 271.71875 182.960938 275.292969 C 183.695312 278.867188 184.546875 282.40625 185.527344 285.921875 C 186.511719 289.4375 187.609375 292.914062 188.832031 296.351562 C 190.050781 299.789062 191.390625 303.179688 192.847656 306.527344 C 194.304688 309.871094 195.878906 313.160156 197.5625 316.394531 C 199.246094 319.632812 201.046875 322.804688 202.953125 325.914062 C 204.859375 329.023438 206.871094 332.066406 208.992188 335.039062 C 211.109375 338.007812 213.328125 340.902344 215.648438 343.714844 C 217.96875 346.53125 220.382812 349.261719 222.890625 351.914062 C 221.761719 346.714844 220.894531 341.476562 220.292969 336.1875 C 219.691406 330.902344 219.363281 325.601562 219.304688 320.28125 C 219.246094 314.960938 219.453125 309.652344 219.933594 304.355469 C 220.414062 299.054688 221.164062 293.796875 222.175781 288.578125 C 223.191406 283.351562 224.46875 278.199219 226.007812 273.105469 C 227.546875 268.015625 229.34375 263.011719 231.390625 258.105469 C 233.441406 253.191406 235.730469 248.402344 238.265625 243.722656 C 240.804688 239.046875 243.570312 234.515625 246.566406 230.117188 Z M 246.566406 230.117188 " fill-opacity="1" fill-rule="nonzero"/><path fill="#fff6a7" d="M 164.742188 294.328125 C 163.566406 289.664062 162.605469 284.957031 161.859375 280.203125 C 161.121094 275.453125 160.59375 270.671875 160.289062 265.871094 C 159.984375 261.070312 159.902344 256.265625 160.042969 251.457031 C 160.179688 246.648438 160.539062 241.859375 161.121094 237.082031 C 161.699219 232.304688 162.496094 227.566406 163.515625 222.863281 C 164.53125 218.164062 165.761719 213.515625 167.207031 208.925781 C 168.652344 204.339844 170.304688 199.828125 172.164062 195.390625 C 174.019531 190.957031 176.085938 186.613281 178.34375 182.363281 L 107.359375 143.886719 C 105.230469 146.847656 103.207031 149.878906 101.285156 152.980469 C 99.367188 156.082031 97.558594 159.25 95.859375 162.476562 C 94.160156 165.707031 92.578125 168.988281 91.105469 172.328125 C 89.636719 175.667969 88.28125 179.050781 87.050781 182.484375 C 85.8125 185.917969 84.699219 189.390625 83.707031 192.898438 C 82.714844 196.410156 81.84375 199.949219 81.09375 203.523438 C 80.351562 207.09375 79.726562 210.6875 79.230469 214.300781 C 78.734375 217.914062 78.359375 221.542969 78.117188 225.183594 C 77.875 228.816406 77.757812 232.460938 77.765625 236.109375 C 77.773438 239.757812 77.910156 243.402344 78.167969 247.042969 C 78.429688 250.679688 78.820312 254.304688 79.332031 257.917969 C 79.847656 261.53125 80.488281 265.121094 81.25 268.6875 C 82.015625 272.25 82.902344 275.785156 83.910156 279.292969 C 84.921875 282.796875 86.050781 286.265625 87.304688 289.691406 C 88.550781 293.117188 89.921875 296.496094 91.40625 299.828125 C 92.894531 303.160156 94.492188 306.4375 96.207031 309.65625 C 97.921875 312.878906 99.746094 316.035156 101.675781 319.128906 C 103.609375 322.226562 105.652344 325.246094 107.796875 328.199219 C 109.9375 331.148438 112.179688 334.023438 114.523438 336.816406 C 116.867188 339.613281 119.304688 342.328125 121.839844 344.953125 C 124.371094 347.578125 126.992188 350.113281 129.699219 352.554688 C 132.40625 355 135.199219 357.347656 138.070312 359.597656 C 140.941406 361.847656 143.886719 363.996094 146.910156 366.039062 C 149.929688 368.085938 153.019531 370.019531 156.175781 371.851562 C 159.328125 373.679688 162.546875 375.402344 165.824219 377.007812 C 169.09375 378.613281 172.421875 380.101562 175.804688 381.480469 C 179.179688 382.851562 182.605469 384.109375 186.074219 385.25 C 189.535156 386.382812 193.039062 387.398438 196.578125 388.292969 C 200.113281 389.183594 203.679688 389.953125 207.265625 390.601562 C 210.859375 391.246094 214.464844 391.765625 218.09375 392.164062 C 221.722656 392.554688 225.355469 392.820312 229.003906 392.964844 C 232.648438 393.105469 236.292969 393.121094 239.9375 393.007812 C 235.304688 390.398438 230.816406 387.558594 226.472656 384.492188 C 222.125 381.421875 217.945312 378.144531 213.9375 374.648438 C 209.921875 371.15625 206.101562 367.46875 202.460938 363.585938 C 198.828125 359.703125 195.398438 355.652344 192.171875 351.417969 C 188.949219 347.1875 185.949219 342.800781 183.171875 338.269531 C 180.390625 333.730469 177.851562 329.066406 175.546875 324.273438 C 173.246094 319.476562 171.191406 314.578125 169.382812 309.574219 C 167.578125 304.574219 166.035156 299.488281 164.742188 294.328125 Z M 164.742188 294.328125 " fill-opacity="1" fill-rule="nonzero"/><path fill="#40464b" d="M 312.890625 288.90625 C 313.453125 288.914062 313.933594 289.117188 314.332031 289.511719 C 314.78125 289.972656 314.984375 290.523438 314.949219 291.167969 L 314.949219 296.109375 C 314.945312 296.664062 314.753906 297.144531 314.375 297.550781 C 313.957031 297.988281 313.441406 298.195312 312.835938 298.167969 L 272.054688 298.167969 C 271.910156 298.1875 271.769531 298.191406 271.625 298.179688 C 271.480469 298.164062 271.335938 298.136719 271.199219 298.089844 C 271.0625 298.042969 270.929688 297.984375 270.808594 297.90625 C 270.683594 297.832031 270.570312 297.742188 270.46875 297.636719 C 270.367188 297.535156 270.277344 297.421875 270.199219 297.300781 C 270.125 297.175781 270.0625 297.046875 270.015625 296.90625 C 269.972656 296.769531 269.941406 296.628906 269.929688 296.484375 C 269.914062 296.339844 269.917969 296.195312 269.9375 296.050781 L 269.9375 228.980469 C 269.929688 228.691406 269.980469 228.410156 270.09375 228.140625 C 270.203125 227.871094 270.363281 227.632812 270.574219 227.433594 C 270.785156 227.230469 271.03125 227.082031 271.304688 226.980469 C 271.582031 226.882812 271.863281 226.847656 272.15625 226.867188 L 277.101562 226.867188 C 277.671875 226.851562 278.175781 227.027344 278.609375 227.402344 C 279.070312 227.828125 279.28125 228.359375 279.242188 228.980469 L 279.242188 288.867188 L 312.90625 288.867188 Z M 312.890625 288.90625 " fill-opacity="1" fill-rule="nonzero"/><path fill="#40464b" d="M 364.570312 284.253906 C 364.867188 283.992188 365.179688 283.75 365.507812 283.53125 C 365.699219 283.386719 365.90625 283.289062 366.140625 283.234375 C 366.375 283.183594 366.609375 283.179688 366.84375 283.234375 C 367.078125 283.285156 367.292969 283.382812 367.484375 283.527344 C 367.675781 283.675781 367.824219 283.851562 367.9375 284.066406 L 369.503906 286.175781 C 369.90625 286.722656 370.230469 287.15625 370.480469 287.472656 L 371.054688 288.234375 C 371.210938 288.417969 371.339844 288.621094 371.441406 288.839844 C 371.539062 289.054688 371.589844 289.285156 371.585938 289.527344 C 371.566406 289.941406 371.433594 290.316406 371.183594 290.648438 C 370.773438 291.199219 370.296875 291.675781 369.746094 292.089844 C 368.375 293.164062 366.9375 294.148438 365.4375 295.035156 C 363.933594 295.921875 362.371094 296.683594 360.746094 297.320312 C 359.070312 297.957031 357.351562 298.433594 355.589844 298.757812 C 350.871094 299.636719 346.207031 299.433594 341.585938 298.152344 C 338.9375 297.40625 336.433594 296.332031 334.066406 294.933594 C 331.710938 293.546875 329.558594 291.894531 327.613281 289.96875 C 325.664062 288.050781 323.984375 285.914062 322.570312 283.578125 C 321.148438 281.214844 320.0625 278.710938 319.304688 276.058594 C 318.527344 273.332031 318.144531 270.554688 318.152344 267.722656 C 318.160156 264.945312 318.519531 262.210938 319.234375 259.527344 C 319.949219 256.84375 320.992188 254.296875 322.367188 251.882812 C 323.699219 249.542969 325.308594 247.414062 327.199219 245.496094 C 329.097656 243.566406 331.222656 241.921875 333.5625 240.554688 C 335.96875 239.152344 338.511719 238.09375 341.195312 237.363281 C 344.023438 236.601562 346.898438 236.226562 349.824219 236.242188 C 352.25 236.238281 354.644531 236.511719 357.011719 237.0625 C 359.367188 237.601562 361.640625 238.394531 363.824219 239.429688 C 366.015625 240.480469 368.058594 241.773438 369.949219 243.296875 C 371.871094 244.855469 373.574219 246.617188 375.066406 248.589844 C 377.167969 251.445312 378.6875 254.585938 379.621094 258.003906 C 380.6875 261.984375 381.164062 266.03125 381.058594 270.152344 C 381.082031 270.296875 381.089844 270.445312 381.082031 270.597656 C 381.074219 270.746094 381.046875 270.894531 381.003906 271.035156 C 380.960938 271.179688 380.902344 271.316406 380.832031 271.445312 C 380.757812 271.578125 380.667969 271.695312 380.566406 271.804688 C 380.460938 271.914062 380.347656 272.011719 380.222656 272.09375 C 380.097656 272.175781 379.96875 272.242188 379.828125 272.292969 C 379.6875 272.347656 379.542969 272.382812 379.394531 272.402344 C 379.242188 272.417969 379.09375 272.421875 378.945312 272.40625 L 328.300781 272.40625 C 328.839844 274.945312 329.800781 277.3125 331.179688 279.507812 C 332.511719 281.683594 334.144531 283.597656 336.078125 285.261719 C 337.988281 286.882812 340.113281 288.148438 342.449219 289.050781 C 344.753906 289.984375 347.152344 290.464844 349.636719 290.492188 C 351.246094 290.507812 352.839844 290.339844 354.410156 289.988281 C 355.753906 289.675781 357.054688 289.226562 358.300781 288.636719 C 359.441406 288.09375 360.519531 287.449219 361.539062 286.710938 C 362.496094 285.988281 363.453125 285.25 364.414062 284.484375 Z M 338.175781 248.71875 C 335.699219 250.386719 333.601562 252.441406 331.882812 254.886719 C 330.113281 257.367188 328.910156 260.097656 328.273438 263.078125 L 371.6875 263.078125 C 371.355469 260.511719 370.535156 258.117188 369.214844 255.890625 C 367.941406 253.726562 366.3125 251.871094 364.339844 250.3125 C 362.34375 248.75 360.144531 247.554688 357.746094 246.734375 C 355.277344 245.875 352.738281 245.453125 350.125 245.457031 C 348.035156 245.460938 345.976562 245.730469 343.957031 246.273438 C 341.914062 246.808594 339.988281 247.625 338.175781 248.71875 Z M 338.175781 248.71875 " fill-opacity="1" fill-rule="nonzero"/><path fill="#40464b" d="M 440.242188 290.117188 C 437.472656 292.957031 434.269531 295.175781 430.640625 296.773438 C 426.859375 298.429688 422.90625 299.234375 418.777344 299.199219 C 415.96875 299.207031 413.210938 298.835938 410.5 298.082031 C 407.851562 297.339844 405.347656 296.265625 402.984375 294.863281 C 400.644531 293.46875 398.515625 291.808594 396.589844 289.878906 C 394.667969 287.953125 393.011719 285.816406 391.625 283.476562 C 390.222656 281.105469 389.148438 278.597656 388.40625 275.941406 C 387.65625 273.21875 387.277344 270.441406 387.277344 267.613281 C 387.277344 264.789062 387.65625 262.011719 388.40625 259.28125 C 389.144531 256.636719 390.21875 254.128906 391.625 251.765625 C 393.019531 249.429688 394.675781 247.304688 396.597656 245.386719 C 398.523438 243.453125 400.664062 241.804688 403.011719 240.421875 C 405.363281 239.042969 407.847656 237.988281 410.472656 237.246094 C 413.191406 236.488281 415.960938 236.113281 418.777344 236.125 C 422.90625 236.089844 426.859375 236.902344 430.640625 238.558594 C 434.269531 240.152344 437.472656 242.371094 440.242188 245.214844 L 440.242188 239.34375 C 440.222656 239.203125 440.21875 239.058594 440.230469 238.914062 C 440.246094 238.773438 440.273438 238.632812 440.320312 238.492188 C 440.367188 238.355469 440.425781 238.226562 440.503906 238.101562 C 440.578125 237.976562 440.667969 237.867188 440.773438 237.761719 C 440.875 237.660156 440.988281 237.570312 441.109375 237.496094 C 441.234375 237.417969 441.363281 237.355469 441.5 237.3125 C 441.636719 237.265625 441.777344 237.234375 441.921875 237.222656 C 442.066406 237.210938 442.210938 237.214844 442.355469 237.234375 L 447.300781 237.234375 C 447.449219 237.207031 447.597656 237.199219 447.746094 237.210938 C 447.894531 237.21875 448.042969 237.246094 448.183594 237.289062 C 448.328125 237.332031 448.464844 237.390625 448.597656 237.464844 C 448.726562 237.539062 448.84375 237.628906 448.953125 237.730469 C 449.0625 237.832031 449.15625 237.945312 449.238281 238.070312 C 449.324219 238.195312 449.390625 238.328125 449.445312 238.46875 C 449.496094 238.609375 449.53125 238.753906 449.550781 238.898438 C 449.570312 239.046875 449.570312 239.195312 449.554688 239.34375 L 449.554688 296.109375 C 449.582031 296.71875 449.378906 297.230469 448.941406 297.648438 C 448.535156 298.027344 448.054688 298.222656 447.5 298.226562 L 442.511719 298.226562 C 441.882812 298.257812 441.351562 298.050781 440.90625 297.605469 C 440.507812 297.207031 440.304688 296.730469 440.300781 296.167969 L 440.300781 290.160156 Z M 440.71875 267.59375 C 440.726562 264.601562 440.152344 261.726562 438.988281 258.964844 C 437.878906 256.273438 436.3125 253.878906 434.289062 251.78125 C 432.277344 249.703125 429.953125 248.070312 427.320312 246.878906 C 424.613281 245.644531 421.777344 245.039062 418.808594 245.054688 C 415.851562 245.035156 413.03125 245.640625 410.34375 246.878906 C 407.726562 248.074219 405.421875 249.707031 403.429688 251.78125 C 401.417969 253.882812 399.867188 256.277344 398.769531 258.964844 C 398.207031 260.335938 397.78125 261.746094 397.492188 263.195312 C 397.203125 264.648438 397.058594 266.113281 397.058594 267.59375 C 397.058594 269.070312 397.203125 270.539062 397.492188 271.992188 C 397.78125 273.4375 398.207031 274.851562 398.769531 276.214844 C 399.875 278.925781 401.425781 281.355469 403.429688 283.488281 C 405.414062 285.601562 407.71875 287.277344 410.34375 288.507812 C 413.023438 289.769531 415.847656 290.394531 418.808594 290.375 C 421.785156 290.390625 424.621094 289.765625 427.320312 288.507812 C 429.964844 287.28125 432.289062 285.605469 434.289062 283.488281 C 436.304688 281.355469 437.871094 278.929688 438.988281 276.214844 C 440.136719 273.457031 440.699219 270.582031 440.675781 267.59375 Z M 440.71875 267.59375 " fill-opacity="1" fill-rule="nonzero"/><path fill="#40464b" d="M 468.488281 243.671875 C 469.558594 241.746094 471 240.144531 472.800781 238.871094 C 473.890625 238.101562 475.058594 237.480469 476.308594 237.019531 C 477.699219 236.503906 479.140625 236.253906 480.621094 236.269531 C 482.1875 236.261719 483.75 236.332031 485.308594 236.484375 C 486.65625 236.617188 487.976562 236.871094 489.277344 237.246094 C 490.53125 237.605469 491.742188 238.085938 492.898438 238.6875 C 494.1875 239.382812 495.410156 240.171875 496.578125 241.058594 C 497.019531 241.402344 497.441406 241.769531 497.84375 242.160156 C 498.308594 242.585938 498.539062 243.113281 498.535156 243.746094 C 498.535156 244.089844 498.457031 244.410156 498.289062 244.710938 L 495.414062 249.019531 C 495.097656 249.503906 494.652344 249.777344 494.078125 249.839844 C 493.808594 249.835938 493.566406 249.75 493.359375 249.578125 L 492.539062 248.976562 C 490.757812 247.734375 488.839844 246.75 486.789062 246.03125 C 484.84375 245.394531 482.851562 245.082031 480.808594 245.097656 C 479.210938 245.097656 477.671875 245.402344 476.195312 246.011719 C 474.714844 246.625 473.414062 247.5 472.28125 248.632812 C 471.097656 249.84375 470.183594 251.242188 469.550781 252.8125 C 468.832031 254.609375 468.488281 256.472656 468.519531 258.410156 L 468.519531 296.109375 C 468.539062 296.253906 468.542969 296.398438 468.53125 296.542969 C 468.515625 296.6875 468.488281 296.828125 468.441406 296.964844 C 468.394531 297.101562 468.332031 297.234375 468.257812 297.355469 C 468.179688 297.480469 468.089844 297.59375 467.988281 297.695312 C 467.886719 297.796875 467.773438 297.886719 467.648438 297.964844 C 467.527344 298.039062 467.394531 298.101562 467.257812 298.148438 C 467.121094 298.195312 466.980469 298.222656 466.835938 298.238281 C 466.691406 298.25 466.550781 298.246094 466.40625 298.226562 L 461.375 298.226562 C 461.226562 298.25 461.082031 298.257812 460.933594 298.246094 C 460.785156 298.238281 460.636719 298.210938 460.496094 298.167969 C 460.355469 298.125 460.21875 298.0625 460.089844 297.988281 C 459.960938 297.914062 459.84375 297.824219 459.738281 297.722656 C 459.628906 297.621094 459.535156 297.507812 459.453125 297.382812 C 459.371094 297.257812 459.308594 297.125 459.257812 296.984375 C 459.207031 296.84375 459.171875 296.699219 459.15625 296.554688 C 459.140625 296.40625 459.140625 296.257812 459.15625 296.109375 L 459.15625 239.34375 C 459.128906 238.742188 459.335938 238.226562 459.777344 237.808594 C 460.183594 237.429688 460.660156 237.238281 461.214844 237.234375 L 466.203125 237.234375 C 466.828125 237.203125 467.367188 237.410156 467.8125 237.851562 C 468.207031 238.25 468.410156 238.730469 468.417969 239.289062 L 468.417969 243.601562 Z M 468.488281 243.671875 " fill-opacity="1" fill-rule="nonzero"/><path fill="#40464b" d="M 514.535156 245.3125 C 515.464844 244.148438 516.472656 243.050781 517.550781 242.023438 C 518.703125 240.925781 519.957031 239.964844 521.316406 239.144531 C 522.773438 238.265625 524.320312 237.574219 525.945312 237.074219 C 527.820312 236.519531 529.742188 236.253906 531.695312 236.285156 C 535.316406 236.210938 538.792969 236.894531 542.121094 238.328125 C 545.050781 239.621094 547.570312 241.484375 549.679688 243.902344 C 551.777344 246.351562 553.3125 249.109375 554.292969 252.179688 C 555.359375 255.492188 555.882812 258.882812 555.859375 262.359375 L 555.859375 294.960938 C 555.933594 295.894531 555.65625 296.710938 555.023438 297.40625 C 554.433594 297.988281 553.71875 298.261719 552.882812 298.226562 L 549.335938 298.226562 C 548.917969 298.292969 548.507812 298.261719 548.105469 298.132812 C 547.703125 298.007812 547.355469 297.796875 547.050781 297.507812 C 546.644531 296.753906 546.476562 295.953125 546.546875 295.105469 L 546.546875 262.359375 C 546.539062 260.367188 546.273438 258.40625 545.753906 256.480469 C 545.238281 254.5 544.378906 252.683594 543.167969 251.035156 C 541.890625 249.328125 540.296875 248.003906 538.394531 247.050781 C 536.085938 245.945312 533.652344 245.4375 531.09375 245.511719 C 529.152344 245.527344 527.261719 245.855469 525.429688 246.488281 C 523.480469 247.132812 521.703125 248.089844 520.09375 249.363281 C 518.453125 250.6875 517.132812 252.269531 516.128906 254.125 C 515.039062 256.148438 514.519531 258.308594 514.5625 260.605469 L 514.5625 296.109375 C 514.582031 296.253906 514.585938 296.398438 514.574219 296.542969 C 514.5625 296.6875 514.53125 296.828125 514.484375 296.964844 C 514.4375 297.101562 514.378906 297.234375 514.300781 297.355469 C 514.226562 297.480469 514.136719 297.59375 514.035156 297.695312 C 513.929688 297.796875 513.816406 297.886719 513.695312 297.964844 C 513.570312 298.039062 513.441406 298.101562 513.300781 298.148438 C 513.164062 298.195312 513.023438 298.222656 512.878906 298.238281 C 512.734375 298.25 512.589844 298.246094 512.445312 298.226562 L 507.5 298.226562 C 507.355469 298.25 507.207031 298.257812 507.054688 298.25 C 506.910156 298.242188 506.761719 298.214844 506.621094 298.171875 C 506.476562 298.128906 506.339844 298.070312 506.210938 297.996094 C 506.078125 297.917969 505.960938 297.832031 505.851562 297.730469 C 505.742188 297.625 505.644531 297.511719 505.5625 297.386719 C 505.476562 297.261719 505.410156 297.128906 505.359375 296.988281 C 505.304688 296.851562 505.269531 296.707031 505.25 296.554688 C 505.230469 296.40625 505.230469 296.257812 505.246094 296.109375 L 505.246094 239.34375 C 505.21875 238.738281 505.429688 238.226562 505.878906 237.808594 C 506.28125 237.429688 506.761719 237.238281 507.316406 237.234375 L 512.300781 237.234375 C 512.929688 237.203125 513.46875 237.40625 513.914062 237.851562 C 514.308594 238.25 514.511719 238.730469 514.519531 239.289062 L 514.519531 245.242188 Z M 514.535156 245.3125 " fill-opacity="1" fill-rule="nonzero"/><path fill="#40464b" d="M 600.953125 229.226562 C 600.929688 229.074219 600.921875 228.917969 600.933594 228.769531 C 600.945312 228.613281 600.972656 228.460938 601.019531 228.3125 C 601.066406 228.167969 601.128906 228.027344 601.207031 227.894531 C 601.289062 227.757812 601.378906 227.636719 601.488281 227.523438 C 601.59375 227.414062 601.714844 227.316406 601.84375 227.230469 C 601.976562 227.148438 602.113281 227.078125 602.257812 227.027344 C 602.40625 226.976562 602.554688 226.941406 602.710938 226.925781 C 602.863281 226.90625 603.011719 226.90625 603.167969 226.925781 L 627.03125 226.925781 C 630.09375 226.898438 633.03125 227.496094 635.839844 228.710938 C 636.835938 229.140625 637.789062 229.644531 638.707031 230.214844 C 639.625 230.789062 640.5 231.421875 641.320312 232.121094 C 642.148438 232.816406 642.917969 233.574219 643.632812 234.382812 C 644.347656 235.195312 645.003906 236.050781 645.59375 236.957031 C 646.183594 237.867188 646.707031 238.804688 647.160156 239.789062 C 647.613281 240.773438 647.996094 241.78125 648.300781 242.816406 C 648.605469 243.855469 648.835938 244.910156 648.988281 245.976562 C 649.140625 247.050781 649.214844 248.128906 649.210938 249.207031 C 649.226562 252.125 648.675781 254.925781 647.558594 257.617188 C 647.019531 258.929688 646.359375 260.183594 645.582031 261.371094 C 644.800781 262.558594 643.914062 263.660156 642.925781 264.679688 C 641.929688 265.695312 640.851562 266.613281 639.6875 267.425781 C 638.519531 268.238281 637.285156 268.925781 635.984375 269.503906 C 633.214844 270.730469 630.308594 271.332031 627.277344 271.300781 L 610.226562 271.300781 L 610.226562 296.109375 C 610.25 296.253906 610.253906 296.398438 610.238281 296.542969 C 610.226562 296.6875 610.195312 296.828125 610.152344 296.964844 C 610.105469 297.101562 610.042969 297.234375 609.96875 297.355469 C 609.890625 297.480469 609.800781 297.59375 609.699219 297.695312 C 609.597656 297.796875 609.484375 297.886719 609.359375 297.964844 C 609.234375 298.039062 609.105469 298.101562 608.96875 298.148438 C 608.832031 298.195312 608.6875 298.222656 608.542969 298.238281 C 608.398438 298.25 608.253906 298.246094 608.113281 298.226562 L 603.066406 298.226562 C 602.925781 298.246094 602.78125 298.25 602.636719 298.238281 C 602.492188 298.222656 602.351562 298.195312 602.214844 298.148438 C 602.078125 298.101562 601.945312 298.039062 601.824219 297.964844 C 601.699219 297.886719 601.585938 297.796875 601.484375 297.695312 C 601.378906 297.59375 601.292969 297.480469 601.214844 297.355469 C 601.136719 297.234375 601.078125 297.101562 601.03125 296.964844 C 600.984375 296.828125 600.957031 296.6875 600.941406 296.542969 C 600.929688 296.398438 600.933594 296.253906 600.953125 296.109375 Z M 639.941406 249.105469 C 639.945312 247.402344 639.609375 245.769531 638.933594 244.207031 C 638.273438 242.644531 637.34375 241.257812 636.15625 240.042969 C 634.972656 238.828125 633.605469 237.875 632.0625 237.175781 C 630.460938 236.441406 628.777344 236.082031 627.015625 236.097656 L 610.226562 236.097656 L 610.226562 262.046875 L 627.03125 262.046875 C 628.753906 262.046875 630.40625 261.691406 631.976562 260.980469 C 633.53125 260.28125 634.910156 259.324219 636.101562 258.105469 C 637.320312 256.898438 638.28125 255.511719 638.976562 253.949219 C 639.632812 252.402344 639.953125 250.789062 639.941406 249.105469 Z M 639.941406 249.105469 " fill-opacity="1" fill-rule="nonzero"/><path fill="#40464b" d="M 667.714844 296.109375 C 667.734375 296.253906 667.738281 296.398438 667.722656 296.542969 C 667.710938 296.6875 667.683594 296.828125 667.636719 296.964844 C 667.589844 297.101562 667.527344 297.234375 667.453125 297.355469 C 667.375 297.480469 667.285156 297.59375 667.183594 297.695312 C 667.082031 297.796875 666.96875 297.886719 666.84375 297.964844 C 666.722656 298.039062 666.589844 298.101562 666.453125 298.148438 C 666.316406 298.195312 666.175781 298.222656 666.035156 298.238281 C 665.890625 298.25 665.746094 298.246094 665.601562 298.226562 L 660.65625 298.226562 C 660.507812 298.25 660.359375 298.257812 660.210938 298.25 C 660.058594 298.242188 659.914062 298.214844 659.769531 298.171875 C 659.625 298.128906 659.488281 298.070312 659.359375 297.996094 C 659.230469 297.917969 659.109375 297.832031 659 297.730469 C 658.890625 297.625 658.792969 297.511719 658.710938 297.386719 C 658.628906 297.261719 658.5625 297.128906 658.507812 296.988281 C 658.460938 296.851562 658.425781 296.707031 658.40625 296.554688 C 658.386719 296.40625 658.382812 296.257812 658.398438 296.109375 L 658.398438 221.25 C 658.371094 220.640625 658.570312 220.128906 659.015625 219.710938 C 659.417969 219.328125 659.898438 219.136719 660.453125 219.132812 L 665.441406 219.132812 C 666.066406 219.101562 666.605469 219.308594 667.050781 219.753906 C 667.449219 220.152344 667.648438 220.628906 667.65625 221.191406 L 667.65625 296.109375 Z M 667.714844 296.109375 " fill-opacity="1" fill-rule="nonzero"/><path fill="#40464b" d="M 729.554688 290.117188 C 726.78125 292.957031 723.585938 295.175781 719.949219 296.773438 C 716.171875 298.429688 712.21875 299.234375 708.09375 299.199219 C 705.28125 299.207031 702.519531 298.835938 699.8125 298.082031 C 697.164062 297.339844 694.65625 296.265625 692.292969 294.863281 C 689.953125 293.46875 687.824219 291.808594 685.902344 289.878906 C 683.976562 287.953125 682.324219 285.816406 680.9375 283.476562 C 679.535156 281.105469 678.464844 278.597656 677.71875 275.941406 C 676.964844 273.21875 676.589844 270.441406 676.589844 267.613281 C 676.589844 264.789062 676.964844 262.011719 677.71875 259.28125 C 678.460938 256.636719 679.53125 254.128906 680.9375 251.765625 C 682.328125 249.429688 683.984375 247.304688 685.914062 245.386719 C 687.835938 243.453125 689.972656 241.804688 692.324219 240.421875 C 694.671875 239.042969 697.160156 237.988281 699.78125 237.246094 C 702.5 236.488281 705.269531 236.113281 708.09375 236.125 C 712.21875 236.089844 716.171875 236.902344 719.949219 238.558594 C 723.582031 240.152344 726.78125 242.371094 729.554688 245.214844 L 729.554688 239.34375 C 729.53125 239.203125 729.527344 239.058594 729.542969 238.914062 C 729.554688 238.773438 729.585938 238.632812 729.628906 238.492188 C 729.675781 238.355469 729.738281 238.226562 729.8125 238.101562 C 729.890625 237.976562 729.980469 237.867188 730.082031 237.761719 C 730.183594 237.660156 730.296875 237.570312 730.421875 237.496094 C 730.546875 237.417969 730.675781 237.355469 730.8125 237.3125 C 730.949219 237.265625 731.09375 237.234375 731.238281 237.222656 C 731.382812 237.210938 731.527344 237.214844 731.667969 237.234375 L 736.613281 237.234375 C 736.757812 237.207031 736.90625 237.199219 737.054688 237.210938 C 737.207031 237.21875 737.351562 237.246094 737.496094 237.289062 C 737.640625 237.332031 737.777344 237.390625 737.90625 237.464844 C 738.035156 237.539062 738.15625 237.628906 738.265625 237.730469 C 738.375 237.832031 738.472656 237.945312 738.554688 238.070312 C 738.636719 238.195312 738.707031 238.328125 738.757812 238.46875 C 738.808594 238.609375 738.847656 238.753906 738.867188 238.898438 C 738.882812 239.046875 738.886719 239.195312 738.871094 239.34375 L 738.871094 296.109375 C 738.898438 296.71875 738.691406 297.230469 738.25 297.648438 C 737.847656 298.027344 737.367188 298.222656 736.8125 298.226562 L 731.765625 298.226562 C 731.140625 298.257812 730.605469 298.050781 730.15625 297.605469 C 729.761719 297.207031 729.558594 296.730469 729.554688 296.167969 Z M 730.027344 267.59375 C 730.039062 264.601562 729.464844 261.726562 728.304688 258.964844 C 727.1875 256.273438 725.625 253.878906 723.605469 251.78125 C 721.589844 249.703125 719.265625 248.070312 716.628906 246.878906 C 713.929688 245.644531 711.09375 245.039062 708.121094 245.054688 C 705.164062 245.035156 702.339844 245.640625 699.652344 246.878906 C 697.035156 248.074219 694.734375 249.707031 692.738281 251.78125 C 690.734375 253.882812 689.179688 256.277344 688.082031 258.964844 C 687.519531 260.335938 687.089844 261.746094 686.804688 263.195312 C 686.515625 264.648438 686.371094 266.113281 686.371094 267.59375 C 686.371094 269.070312 686.515625 270.539062 686.804688 271.992188 C 687.089844 273.4375 687.519531 274.851562 688.082031 276.214844 C 689.183594 278.925781 690.738281 281.355469 692.738281 283.488281 C 694.722656 285.601562 697.027344 287.277344 699.652344 288.507812 C 702.335938 289.769531 705.15625 290.394531 708.121094 290.375 C 711.097656 290.390625 713.9375 289.765625 716.628906 288.507812 C 719.273438 287.28125 721.597656 285.605469 723.605469 283.488281 C 725.617188 281.355469 727.183594 278.929688 728.304688 276.214844 C 729.46875 273.460938 730.046875 270.585938 730.042969 267.59375 Z M 730.027344 267.59375 " fill-opacity="1" fill-rule="nonzero"/><path fill="#40464b" d="M 751.890625 239.042969 C 752.496094 240.644531 753.28125 242.675781 754.253906 245.140625 L 757.367188 253.128906 C 758.492188 256.003906 759.648438 258.957031 760.847656 261.988281 C 762.042969 265.015625 763.203125 267.890625 764.316406 270.609375 L 767.34375 278.128906 C 768.304688 280.390625 769.035156 282.175781 769.527344 283.476562 C 770.039062 282.164062 770.742188 280.378906 771.644531 278.128906 C 772.542969 275.875 773.53125 273.367188 774.601562 270.597656 L 777.996094 261.886719 C 779.179688 258.847656 780.320312 255.894531 781.433594 253.03125 L 784.511719 245.039062 L 786.839844 238.941406 C 787.042969 238.425781 787.359375 237.996094 787.800781 237.652344 C 788.273438 237.308594 788.800781 237.152344 789.382812 237.175781 L 794.71875 237.175781 C 796.125 237.175781 796.832031 237.738281 796.832031 238.855469 C 796.84375 238.964844 796.84375 239.078125 796.832031 239.1875 C 796.792969 239.332031 796.742188 239.476562 796.6875 239.617188 C 796.617188 239.789062 796.570312 239.96875 796.542969 240.152344 L 785.257812 267.953125 L 766.054688 315.015625 L 766.054688 314.941406 C 765.972656 315.214844 765.847656 315.460938 765.683594 315.6875 C 765.515625 315.914062 765.316406 316.109375 765.085938 316.273438 C 764.855469 316.433594 764.605469 316.554688 764.335938 316.628906 C 764.066406 316.707031 763.789062 316.738281 763.507812 316.722656 L 758.75 316.722656 C 757.214844 316.722656 756.449219 316.128906 756.449219 314.941406 C 756.453125 314.707031 756.488281 314.476562 756.550781 314.253906 C 756.546875 314.097656 756.527344 313.945312 756.496094 313.792969 L 764.511719 294.445312 L 742.230469 240.222656 C 742.230469 240.121094 742.230469 240.023438 742.132812 239.890625 C 742.058594 239.574219 742.023438 239.253906 742.03125 238.929688 C 742.03125 237.808594 742.769531 237.246094 744.246094 237.246094 L 749.308594 237.246094 C 749.886719 237.222656 750.414062 237.382812 750.886719 237.722656 C 751.347656 238.070312 751.683594 238.511719 751.890625 239.042969 Z M 751.890625 239.042969 " fill-opacity="1" fill-rule="nonzero"/><path fill="#40464b" d="M 368.363281 333.554688 C 369.390625 333.550781 370.304688 333.863281 371.109375 334.492188 C 371.542969 334.828125 371.886719 335.242188 372.136719 335.726562 C 372.390625 336.214844 372.527344 336.730469 372.550781 337.28125 L 372.550781 345.800781 C 372.5625 346.886719 372.222656 347.847656 371.527344 348.679688 C 371.128906 349.109375 370.660156 349.433594 370.113281 349.648438 C 369.5625 349.863281 368.996094 349.945312 368.410156 349.898438 L 333.261719 349.898438 L 333.261719 454.949219 C 333.269531 455.980469 332.925781 456.882812 332.242188 457.652344 C 331.878906 458.058594 331.445312 458.363281 330.9375 458.570312 C 330.433594 458.777344 329.914062 458.867188 329.367188 458.832031 L 320.929688 458.832031 C 319.882812 458.835938 318.980469 458.472656 318.226562 457.738281 C 317.835938 457.382812 317.539062 456.960938 317.332031 456.472656 C 317.128906 455.984375 317.03125 455.480469 317.046875 454.949219 L 317.046875 349.929688 L 281.730469 349.929688 C 280.660156 349.972656 279.734375 349.636719 278.941406 348.925781 C 278.542969 348.503906 278.25 348.023438 278.058594 347.480469 C 277.871094 346.9375 277.796875 346.375 277.847656 345.800781 L 277.847656 337.28125 C 277.824219 336.769531 277.90625 336.28125 278.097656 335.808594 C 278.289062 335.339844 278.570312 334.929688 278.941406 334.578125 C 279.734375 333.859375 280.660156 333.519531 281.730469 333.554688 Z M 368.363281 333.554688 " fill-opacity="1" fill-rule="nonzero"/><path fill="#40464b" d="M 401.082031 362.492188 C 402.609375 360.578125 404.292969 358.820312 406.144531 357.21875 C 407.984375 355.644531 409.996094 354.335938 412.183594 353.292969 C 414.59375 352.164062 417.109375 351.347656 419.730469 350.847656 C 422.964844 350.246094 426.230469 349.964844 429.515625 350 C 432.402344 349.960938 435.257812 350.222656 438.085938 350.792969 C 440.914062 351.363281 443.648438 352.226562 446.292969 353.375 C 448.9375 354.527344 451.429688 355.945312 453.769531 357.632812 C 456.113281 359.316406 458.25 361.230469 460.179688 363.367188 C 464 367.660156 466.871094 372.507812 468.804688 377.917969 C 470.902344 383.691406 471.925781 389.652344 471.878906 395.796875 L 471.878906 453.078125 C 471.945312 453.867188 471.855469 454.636719 471.609375 455.386719 C 471.359375 456.132812 470.96875 456.800781 470.445312 457.394531 C 469.941406 457.875 469.363281 458.242188 468.714844 458.492188 C 468.0625 458.742188 467.386719 458.855469 466.691406 458.832031 L 460.453125 458.832031 C 458.375 458.832031 457.035156 458.410156 456.445312 457.566406 C 455.730469 456.246094 455.433594 454.847656 455.550781 453.351562 L 455.550781 395.855469 C 455.53125 392.320312 454.953125 388.875 453.828125 385.523438 C 452.6875 382.023438 450.972656 378.832031 448.683594 375.945312 C 446.335938 373.011719 443.492188 370.675781 440.15625 368.949219 C 436.457031 367.0625 432.53125 366.160156 428.382812 366.242188 C 425.050781 366.261719 421.8125 366.835938 418.679688 367.96875 C 415.421875 369.113281 412.484375 370.816406 409.867188 373.070312 C 407.171875 375.417969 405.046875 378.203125 403.5 381.425781 C 401.792969 385.027344 400.984375 388.824219 401.054688 392.808594 L 401.054688 455.136719 C 401.089844 455.390625 401.097656 455.640625 401.074219 455.890625 C 401.050781 456.144531 401.003906 456.394531 400.921875 456.636719 C 400.84375 456.878906 400.734375 457.105469 400.601562 457.324219 C 400.464844 457.539062 400.308594 457.738281 400.128906 457.917969 C 399.949219 458.097656 399.75 458.253906 399.535156 458.390625 C 399.316406 458.523438 399.085938 458.628906 398.847656 458.710938 C 398.605469 458.792969 398.359375 458.84375 398.105469 458.867188 C 397.851562 458.890625 397.597656 458.882812 397.347656 458.847656 L 388.71875 458.847656 C 386.074219 458.847656 384.753906 457.609375 384.753906 455.136719 L 384.753906 323.523438 C 384.730469 323.015625 384.816406 322.523438 385.003906 322.054688 C 385.195312 321.582031 385.476562 321.171875 385.847656 320.820312 C 386.582031 320.128906 387.457031 319.792969 388.460938 319.8125 L 397.230469 319.8125 C 397.769531 319.78125 398.289062 319.859375 398.785156 320.050781 C 399.289062 320.242188 399.726562 320.527344 400.109375 320.90625 C 400.824219 321.632812 401.171875 322.503906 401.15625 323.523438 L 401.15625 362.492188 Z M 401.082031 362.492188 " fill-opacity="1" fill-rule="nonzero"/><path fill="#40464b" d="M 504.84375 362.996094 C 505.652344 361.492188 506.613281 360.085938 507.71875 358.785156 C 509.074219 357.183594 510.605469 355.78125 512.316406 354.574219 C 514.226562 353.21875 516.277344 352.136719 518.472656 351.324219 C 520.921875 350.421875 523.449219 349.984375 526.0625 350.015625 C 528.808594 350.003906 531.550781 350.132812 534.285156 350.402344 C 536.644531 350.640625 538.964844 351.089844 541.242188 351.757812 C 543.453125 352.40625 545.574219 353.28125 547.609375 354.371094 C 549.867188 355.605469 552.019531 356.996094 554.0625 358.554688 C 554.851562 359.152344 555.597656 359.800781 556.304688 360.496094 C 556.699219 360.851562 557 361.273438 557.214844 361.761719 C 557.425781 362.246094 557.527344 362.75 557.527344 363.28125 C 557.535156 363.878906 557.398438 364.441406 557.113281 364.964844 L 552.140625 372.640625 C 551.875 373.046875 551.535156 373.375 551.121094 373.625 C 550.707031 373.878906 550.257812 374.027344 549.78125 374.078125 C 549.304688 374.074219 548.882812 373.921875 548.515625 373.617188 C 548.121094 373.3125 547.640625 372.960938 547.078125 372.566406 C 543.929688 370.375 540.539062 368.644531 536.914062 367.378906 C 533.5 366.261719 529.996094 365.714844 526.40625 365.738281 C 525.011719 365.738281 523.636719 365.871094 522.269531 366.140625 C 520.910156 366.410156 519.585938 366.8125 518.296875 367.34375 C 517.015625 367.875 515.792969 368.527344 514.632812 369.296875 C 513.480469 370.074219 512.410156 370.953125 511.429688 371.9375 C 509.335938 374.066406 507.726562 376.511719 506.613281 379.28125 C 505.34375 382.4375 504.742188 385.71875 504.796875 389.113281 L 504.796875 455.167969 C 504.835938 455.417969 504.839844 455.671875 504.820312 455.921875 C 504.796875 456.175781 504.742188 456.421875 504.664062 456.664062 C 504.582031 456.90625 504.480469 457.136719 504.34375 457.351562 C 504.210938 457.570312 504.054688 457.765625 503.875 457.945312 C 503.695312 458.128906 503.496094 458.285156 503.277344 458.417969 C 503.0625 458.550781 502.832031 458.660156 502.589844 458.738281 C 502.347656 458.820312 502.101562 458.871094 501.851562 458.894531 C 501.597656 458.917969 501.34375 458.910156 501.09375 458.875 L 492.320312 458.875 C 489.734375 458.875 488.441406 457.636719 488.441406 455.167969 L 488.441406 355.480469 C 488.417969 354.96875 488.503906 354.480469 488.695312 354.007812 C 488.886719 353.535156 489.167969 353.125 489.53125 352.773438 C 490.269531 352.085938 491.144531 351.75 492.148438 351.769531 L 500.917969 351.769531 C 501.457031 351.738281 501.976562 351.816406 502.472656 352.007812 C 502.976562 352.199219 503.414062 352.480469 503.792969 352.859375 C 504.511719 353.585938 504.859375 354.460938 504.84375 355.480469 L 504.84375 363.066406 Z M 504.84375 362.996094 " fill-opacity="1" fill-rule="nonzero"/><path fill="#40464b" d="M 585.730469 332.222656 C 585.765625 332.46875 585.773438 332.722656 585.75 332.976562 C 585.726562 333.230469 585.675781 333.476562 585.59375 333.71875 C 585.515625 333.960938 585.40625 334.191406 585.277344 334.40625 C 585.144531 334.625 584.988281 334.824219 584.804688 335.003906 C 584.625 335.183594 584.425781 335.339844 584.210938 335.472656 C 583.992188 335.609375 583.765625 335.710938 583.523438 335.792969 C 583.28125 335.871094 583.03125 335.925781 582.777344 335.945312 C 582.53125 335.96875 582.277344 335.964844 582.023438 335.925781 L 573.398438 335.925781 C 570.753906 335.925781 569.429688 334.691406 569.429688 332.222656 L 569.429688 323.59375 C 569.40625 323.085938 569.492188 322.59375 569.683594 322.125 C 569.875 321.652344 570.152344 321.242188 570.523438 320.894531 C 571.257812 320.203125 572.132812 319.867188 573.136719 319.886719 L 581.910156 319.886719 C 583.019531 319.816406 583.976562 320.167969 584.785156 320.9375 C 585.515625 321.671875 585.863281 322.554688 585.832031 323.59375 L 585.832031 332.222656 Z M 585.730469 455.121094 C 585.765625 455.375 585.773438 455.628906 585.75 455.882812 C 585.726562 456.132812 585.675781 456.378906 585.59375 456.621094 C 585.515625 456.863281 585.40625 457.09375 585.277344 457.308594 C 585.144531 457.527344 584.988281 457.722656 584.804688 457.902344 C 584.625 458.085938 584.425781 458.242188 584.210938 458.375 C 583.992188 458.507812 583.765625 458.617188 583.523438 458.695312 C 583.28125 458.777344 583.03125 458.828125 582.777344 458.851562 C 582.53125 458.875 582.277344 458.867188 582.023438 458.832031 L 573.398438 458.832031 C 570.753906 458.832031 569.429688 457.59375 569.429688 455.121094 L 569.429688 355.480469 C 569.410156 354.972656 569.492188 354.480469 569.683594 354.007812 C 569.875 353.535156 570.152344 353.125 570.523438 352.773438 C 571.257812 352.085938 572.132812 351.75 573.136719 351.769531 L 581.910156 351.769531 C 582.445312 351.738281 582.960938 351.816406 583.460938 352.007812 C 583.964844 352.199219 584.40625 352.480469 584.785156 352.859375 C 585.496094 353.585938 585.847656 354.460938 585.832031 355.480469 L 585.832031 455.179688 Z M 585.730469 455.121094 " fill-opacity="1" fill-rule="nonzero"/><path fill="#40464b" d="M 611.636719 354.816406 C 612.699219 357.625 614.078125 361.195312 615.773438 365.527344 L 621.25 379.566406 C 623.214844 384.601562 625.253906 389.789062 627.363281 395.136719 C 629.46875 400.484375 631.492188 405.574219 633.425781 410.402344 C 635.347656 415.195312 637.117188 419.589844 638.746094 423.597656 C 640.378906 427.605469 641.65625 430.738281 642.585938 433 C 643.484375 430.699219 644.722656 427.566406 646.292969 423.597656 C 647.867188 419.628906 649.59375 415.21875 651.480469 410.359375 C 653.402344 405.503906 655.386719 400.398438 657.433594 395.050781 C 659.484375 389.703125 661.496094 384.515625 663.472656 379.480469 C 665.390625 374.453125 667.191406 369.769531 668.875 365.441406 L 672.976562 354.730469 C 673.328125 353.820312 673.886719 353.0625 674.65625 352.457031 C 675.488281 351.855469 676.414062 351.570312 677.445312 351.613281 L 686.800781 351.613281 C 689.273438 351.613281 690.511719 352.589844 690.511719 354.558594 C 690.507812 354.757812 690.476562 354.957031 690.425781 355.148438 C 690.355469 355.410156 690.269531 355.664062 690.167969 355.90625 C 690.046875 356.210938 689.960938 356.519531 689.90625 356.84375 L 649.84375 455.714844 C 649.664062 456.015625 649.507812 456.339844 649.382812 456.671875 C 649.230469 457.058594 649.003906 457.394531 648.707031 457.679688 C 648.355469 458.027344 647.945312 458.292969 647.488281 458.488281 C 646.804688 458.742188 646.097656 458.851562 645.375 458.816406 L 639.8125 458.816406 C 639.082031 458.851562 638.378906 458.742188 637.699219 458.488281 C 637.242188 458.292969 636.832031 458.027344 636.476562 457.679688 C 636.175781 457.394531 635.953125 457.058594 635.796875 456.671875 C 635.675781 456.339844 635.523438 456.015625 635.339844 455.714844 L 594.761719 356.914062 C 594.761719 356.742188 594.644531 356.554688 594.585938 356.324219 C 594.460938 355.769531 594.40625 355.214844 594.414062 354.644531 C 594.414062 352.679688 595.707031 351.699219 598.292969 351.699219 L 607.152344 351.699219 C 608.175781 351.660156 609.109375 351.941406 609.941406 352.542969 C 610.707031 353.148438 611.273438 353.90625 611.636719 354.816406 Z M 611.636719 354.816406 " fill-opacity="1" fill-rule="nonzero"/><path fill="#40464b" d="M 771.34375 434.277344 C 771.863281 433.820312 772.40625 433.398438 772.980469 433.011719 C 773.148438 432.882812 773.324219 432.773438 773.515625 432.683594 C 773.707031 432.59375 773.902344 432.523438 774.109375 432.480469 C 774.316406 432.433594 774.523438 432.410156 774.730469 432.410156 C 774.941406 432.410156 775.148438 432.429688 775.355469 432.476562 C 775.5625 432.515625 775.757812 432.582031 775.949219 432.671875 C 776.140625 432.757812 776.320312 432.867188 776.488281 432.992188 C 776.65625 433.121094 776.808594 433.265625 776.945312 433.425781 C 777.082031 433.585938 777.195312 433.761719 777.292969 433.949219 L 780.039062 437.65625 C 780.738281 438.617188 781.316406 439.371094 781.765625 439.925781 C 782.214844 440.484375 782.550781 440.933594 782.769531 441.28125 C 783.042969 441.601562 783.265625 441.949219 783.445312 442.332031 C 783.625 442.714844 783.710938 443.121094 783.707031 443.550781 C 783.671875 444.285156 783.429688 444.949219 782.984375 445.535156 C 782.269531 446.476562 781.445312 447.308594 780.5 448.019531 C 778.101562 449.917969 775.585938 451.652344 772.953125 453.207031 C 770.320312 454.769531 767.578125 456.101562 764.726562 457.21875 C 761.789062 458.371094 758.761719 459.238281 755.660156 459.835938 C 751.574219 460.597656 747.453125 460.894531 743.300781 460.714844 C 739.152344 460.539062 735.070312 459.894531 731.066406 458.789062 C 726.421875 457.476562 722.019531 455.597656 717.867188 453.136719 C 713.738281 450.699219 709.972656 447.789062 706.5625 444.414062 C 703.160156 441.035156 700.21875 437.292969 697.742188 433.183594 C 695.242188 429.042969 693.324219 424.644531 691.992188 419.988281 C 690.625 415.210938 689.949219 410.332031 689.964844 405.359375 C 689.953125 400.464844 690.566406 395.660156 691.800781 390.925781 C 693.042969 386.191406 694.863281 381.699219 697.265625 377.441406 C 699.609375 373.316406 702.445312 369.5625 705.777344 366.1875 C 709.109375 362.8125 712.824219 359.925781 716.917969 357.535156 C 721.144531 355.078125 725.613281 353.207031 730.332031 351.929688 C 735.316406 350.578125 740.390625 349.917969 745.554688 349.941406 C 749.792969 349.945312 753.984375 350.425781 758.117188 351.382812 C 762.261719 352.335938 766.253906 353.726562 770.089844 355.566406 C 773.941406 357.40625 777.523438 359.667969 780.84375 362.351562 C 784.21875 365.078125 787.210938 368.171875 789.828125 371.636719 C 793.519531 376.648438 796.191406 382.160156 797.835938 388.167969 C 799.683594 395.164062 800.496094 402.28125 800.277344 409.511719 C 800.277344 412.15625 799.042969 413.476562 796.570312 413.476562 L 707.617188 413.476562 C 708.550781 417.9375 710.222656 422.097656 712.632812 425.953125 C 714.980469 429.761719 717.855469 433.117188 721.261719 436.015625 C 724.605469 438.871094 728.332031 441.09375 732.429688 442.6875 C 736.523438 444.292969 740.769531 445.09375 745.164062 445.089844 C 748 445.117188 750.796875 444.820312 753.5625 444.199219 C 755.921875 443.65625 758.199219 442.871094 760.386719 441.839844 C 762.40625 440.890625 764.328125 439.761719 766.140625 438.464844 C 767.882812 437.195312 769.566406 435.886719 771.199219 434.539062 Z M 725.113281 371.867188 C 720.757812 374.796875 717.074219 378.410156 714.054688 382.703125 C 710.957031 387.058594 708.847656 391.851562 707.734375 397.078125 L 783.921875 397.078125 C 783.363281 392.53125 781.929688 388.289062 779.609375 384.34375 C 777.34375 380.539062 774.472656 377.277344 770.984375 374.554688 C 767.46875 371.808594 763.605469 369.710938 759.382812 368.273438 C 755.050781 366.773438 750.59375 366.03125 746.015625 366.042969 C 742.335938 366.042969 738.726562 366.523438 735.175781 367.480469 C 731.609375 368.457031 728.253906 369.917969 725.113281 371.867188 Z M 725.113281 371.867188 " fill-opacity="1" fill-rule="nonzero"/><path fill="#d7a6d8" d="M 155.042969 396.085938 C 150.8125 393.789062 146.699219 391.308594 142.699219 388.632812 C 138.699219 385.957031 134.832031 383.105469 131.09375 380.078125 C 127.359375 377.046875 123.765625 373.851562 120.328125 370.492188 C 116.882812 367.132812 113.601562 363.621094 110.484375 359.957031 C 107.363281 356.292969 104.417969 352.496094 101.648438 348.5625 C 98.878906 344.628906 96.296875 340.574219 93.902344 336.402344 C 91.507812 332.234375 89.308594 327.960938 87.308594 323.582031 C 85.304688 319.207031 83.503906 314.753906 81.914062 310.210938 L 5.511719 336.359375 C 6.246094 339.933594 7.105469 343.480469 8.082031 346.996094 C 9.066406 350.511719 10.164062 353.988281 11.390625 357.425781 C 12.609375 360.867188 13.953125 364.257812 15.410156 367.601562 C 16.871094 370.949219 18.441406 374.238281 20.128906 377.476562 C 21.820312 380.710938 23.617188 383.882812 25.523438 386.996094 C 27.433594 390.105469 29.449219 393.144531 31.566406 396.117188 C 33.6875 399.089844 35.90625 401.984375 38.226562 404.800781 C 40.550781 407.613281 42.964844 410.347656 45.476562 412.992188 C 47.988281 415.644531 50.589844 418.203125 53.28125 420.667969 C 55.96875 423.132812 58.742188 425.507812 61.597656 427.78125 C 64.453125 430.054688 67.382812 432.226562 70.390625 434.296875 C 73.390625 436.367188 76.464844 438.332031 79.609375 440.1875 C 82.753906 442.042969 85.953125 443.789062 89.21875 445.421875 C 92.484375 447.054688 95.796875 448.574219 99.167969 449.976562 C 102.539062 451.378906 105.949219 452.660156 109.410156 453.828125 C 112.871094 454.992188 116.363281 456.035156 119.894531 456.957031 C 123.425781 457.882812 126.984375 458.679688 130.574219 459.351562 C 134.160156 460.027344 137.765625 460.578125 141.390625 461 C 145.015625 461.425781 148.652344 461.722656 152.296875 461.890625 C 155.945312 462.0625 159.589844 462.105469 163.238281 462.023438 C 166.886719 461.941406 170.53125 461.730469 174.160156 461.390625 C 177.796875 461.054688 181.417969 460.59375 185.015625 460.003906 C 188.621094 459.414062 192.195312 458.703125 195.75 457.867188 C 199.300781 457.027344 202.820312 456.066406 206.308594 454.988281 C 209.789062 453.902344 213.234375 452.699219 216.640625 451.378906 C 220.039062 450.058594 223.390625 448.621094 226.695312 447.0625 C 229.992188 445.511719 233.238281 443.839844 236.425781 442.0625 C 239.609375 440.277344 242.730469 438.390625 245.785156 436.390625 C 248.839844 434.394531 251.820312 432.292969 254.726562 430.085938 C 257.636719 427.882812 260.464844 425.582031 263.210938 423.175781 C 265.960938 420.773438 268.621094 418.28125 271.195312 415.695312 C 273.769531 413.105469 276.25 410.429688 278.636719 407.671875 C 273.574219 409.308594 268.441406 410.691406 263.238281 411.808594 C 258.03125 412.925781 252.785156 413.777344 247.496094 414.359375 C 242.203125 414.945312 236.902344 415.257812 231.578125 415.304688 C 226.253906 415.347656 220.945312 415.121094 215.644531 414.625 C 210.34375 414.125 205.085938 413.359375 199.863281 412.332031 C 194.640625 411.296875 189.484375 410.003906 184.394531 408.445312 C 179.304688 406.886719 174.308594 405.078125 169.402344 403.011719 C 164.5 400.949219 159.710938 398.640625 155.042969 396.085938 Z M 155.042969 396.085938 " fill-opacity="1" fill-rule="nonzero"/><path stroke-linecap="butt" transform="matrix(0.998455, 0, 0, 0.998832, 0.34477, 0)" fill-opacity="1" fill="#d7a6d8" fill-rule="nonzero" stroke-linejoin="miter" d="M 586.440374 267.840239 C 586.440374 268.379932 586.389514 268.915714 586.283882 269.443675 C 586.17825 269.975546 586.021758 270.487864 585.814407 270.988448 C 585.607055 271.489033 585.356668 271.962242 585.055421 272.411986 C 584.754175 272.85782 584.413805 273.276277 584.0304 273.655627 C 583.650907 274.038887 583.236204 274.379128 582.78629 274.680261 C 582.336376 274.981394 581.862988 275.231687 581.362214 275.43896 C 580.865353 275.646233 580.34893 275.802666 579.82077 275.908258 C 579.29261 276.01385 578.756625 276.064691 578.216728 276.064691 C 577.676832 276.064691 577.140847 276.01385 576.612687 275.908258 C 576.080615 275.802666 575.568104 275.646233 575.06733 275.43896 C 574.570469 275.231687 574.097081 274.981394 573.647167 274.680261 C 573.197253 274.379128 572.78255 274.038887 572.399145 273.655627 C 572.019652 273.276277 571.67537 272.85782 571.378035 272.411986 C 571.076789 271.962242 570.822489 271.489033 570.615138 270.988448 C 570.411698 270.487864 570.255207 269.975546 570.149575 269.443675 C 570.043943 268.915714 569.98917 268.379932 569.98917 267.840239 C 569.98917 267.300546 570.043943 266.764764 570.149575 266.236804 C 570.255207 265.704932 570.411698 265.192615 570.615138 264.69203 C 570.822489 264.195356 571.076789 263.722147 571.378035 263.272403 C 571.67537 262.822659 572.019652 262.408112 572.399145 262.024852 C 572.78255 261.641592 573.197253 261.30135 573.647167 261.000217 C 574.097081 260.702995 574.570469 260.448792 575.06733 260.241519 C 575.568104 260.034245 576.080615 259.877812 576.612687 259.77222 C 577.140847 259.670539 577.676832 259.615788 578.216728 259.615788 C 578.756625 259.615788 579.29261 259.670539 579.82077 259.77222 C 580.34893 259.877812 580.865353 260.034245 581.362214 260.241519 C 581.862988 260.448792 582.336376 260.702995 582.78629 261.000217 C 583.236204 261.30135 583.650907 261.641592 584.0304 262.024852 C 584.413805 262.408112 584.754175 262.822659 585.055421 263.272403 C 585.356668 263.722147 585.607055 264.195356 585.814407 264.69203 C 586.021758 265.192615 586.17825 265.704932 586.283882 266.236804 C 586.389514 266.764764 586.440374 267.300546 586.440374 267.840239 Z M 586.440374 267.840239 " stroke="#d7a6d8" stroke-width="1" stroke-opacity="1" stroke-miterlimit="4"/><g fill="#b37ab4" fill-opacity="1"><g transform="translate(302.27248, 551.385832)"><g><path d="M 25.796875 -28.59375 L 19.46875 -28.59375 L 19.46875 0 L 5.3125 0 L 5.3125 -28.59375 L 0.9375 -28.59375 L 0.9375 -40.3125 L 5.3125 -40.3125 L 5.3125 -40.671875 C 5.3125 -45.847656 6.832031 -49.8125 9.875 -52.5625 C 12.914062 -55.320312 17.289062 -56.703125 23 -56.703125 C 24.144531 -56.703125 25.03125 -56.675781 25.65625 -56.625 L 25.65625 -44.625 C 25.269531 -44.675781 24.742188 -44.703125 24.078125 -44.703125 C 22.535156 -44.703125 21.40625 -44.351562 20.6875 -43.65625 C 19.976562 -42.957031 19.570312 -41.84375 19.46875 -40.3125 L 25.796875 -40.3125 Z M 25.796875 -28.59375 "/></g></g></g><g fill="#b37ab4" fill-opacity="1"><g transform="translate(331.08758, 551.385832)"><g><path d="M 22.78125 0.5 C 18.757812 0.5 15.15625 -0.335938 11.96875 -2.015625 C 8.78125 -3.691406 6.273438 -6.085938 4.453125 -9.203125 C 2.628906 -12.316406 1.71875 -15.976562 1.71875 -20.1875 C 1.71875 -24.351562 2.640625 -27.992188 4.484375 -31.109375 C 6.328125 -34.222656 8.84375 -36.617188 12.03125 -38.296875 C 15.21875 -39.972656 18.820312 -40.8125 22.84375 -40.8125 C 26.875 -40.8125 30.476562 -39.972656 33.65625 -38.296875 C 36.84375 -36.617188 39.359375 -34.222656 41.203125 -31.109375 C 43.054688 -27.992188 43.984375 -24.351562 43.984375 -20.1875 C 43.984375 -16.019531 43.054688 -12.367188 41.203125 -9.234375 C 39.359375 -6.097656 36.832031 -3.691406 33.625 -2.015625 C 30.414062 -0.335938 26.800781 0.5 22.78125 0.5 Z M 22.78125 -11.71875 C 24.738281 -11.71875 26.375 -12.445312 27.6875 -13.90625 C 29.007812 -15.363281 29.671875 -17.457031 29.671875 -20.1875 C 29.671875 -22.914062 29.007812 -25 27.6875 -26.4375 C 26.375 -27.875 24.757812 -28.59375 22.84375 -28.59375 C 20.9375 -28.59375 19.332031 -27.875 18.03125 -26.4375 C 16.738281 -25 16.09375 -22.914062 16.09375 -20.1875 C 16.09375 -17.414062 16.710938 -15.3125 17.953125 -13.875 C 19.203125 -12.4375 20.8125 -11.71875 22.78125 -11.71875 Z M 22.78125 -11.71875 "/></g></g></g><g fill="#b37ab4" fill-opacity="1"><g transform="translate(378.801196, 551.385832)"><g><path d="M 18.109375 -33.203125 C 19.691406 -35.492188 21.609375 -37.3125 23.859375 -38.65625 C 26.109375 -40 28.523438 -40.671875 31.109375 -40.671875 L 31.109375 -25.65625 L 27.15625 -25.65625 C 24.09375 -25.65625 21.816406 -25.054688 20.328125 -23.859375 C 18.847656 -22.660156 18.109375 -20.578125 18.109375 -17.609375 L 18.109375 0 L 4.03125 0 L 4.03125 -40.3125 L 18.109375 -40.3125 Z M 18.109375 -33.203125 "/></g></g></g><g fill="#b37ab4" fill-opacity="1"><g transform="translate(412.933754, 551.385832)"><g/></g></g><g fill="#b37ab4" fill-opacity="1"><g transform="translate(428.670805, 551.385832)"><g><path d="M 44.046875 -33.78125 C 44.046875 -30.707031 43.335938 -27.910156 41.921875 -25.390625 C 40.515625 -22.878906 38.382812 -20.867188 35.53125 -19.359375 C 32.6875 -17.859375 29.203125 -17.109375 25.078125 -17.109375 L 18.109375 -17.109375 L 18.109375 0 L 4.03125 0 L 4.03125 -50.65625 L 25.078125 -50.65625 C 29.148438 -50.65625 32.609375 -49.9375 35.453125 -48.5 C 38.304688 -47.0625 40.453125 -45.070312 41.890625 -42.53125 C 43.328125 -40 44.046875 -37.082031 44.046875 -33.78125 Z M 23.71875 -28.3125 C 27.6875 -28.3125 29.671875 -30.132812 29.671875 -33.78125 C 29.671875 -37.46875 27.6875 -39.3125 23.71875 -39.3125 L 18.109375 -39.3125 L 18.109375 -28.3125 Z M 23.71875 -28.3125 "/></g></g></g><g fill="#b37ab4" fill-opacity="1"><g transform="translate(476.384421, 551.385832)"><g><path d="M 36.078125 -8.265625 L 18.109375 -8.265625 L 15.375 0 L 0.578125 0 L 19.046875 -50.65625 L 35.28125 -50.65625 L 53.671875 0 L 38.796875 0 Z M 32.546875 -19.046875 L 27.09375 -35.421875 L 21.703125 -19.046875 Z M 32.546875 -19.046875 "/></g></g></g><g fill="#b37ab4" fill-opacity="1"><g transform="translate(532.649074, 551.385832)"><g><path d="M 29.671875 0 L 19.625 -18.6875 L 18.109375 -18.6875 L 18.109375 0 L 4.03125 0 L 4.03125 -50.65625 L 26.234375 -50.65625 C 30.304688 -50.65625 33.753906 -49.945312 36.578125 -48.53125 C 39.398438 -47.125 41.53125 -45.1875 42.96875 -42.71875 C 44.40625 -40.25 45.125 -37.484375 45.125 -34.421875 C 45.125 -30.972656 44.175781 -27.941406 42.28125 -25.328125 C 40.394531 -22.722656 37.628906 -20.867188 33.984375 -19.765625 L 45.421875 0 Z M 18.109375 -28.3125 L 25.078125 -28.3125 C 26.992188 -28.3125 28.429688 -28.765625 29.390625 -29.671875 C 30.347656 -30.585938 30.828125 -31.90625 30.828125 -33.625 C 30.828125 -35.257812 30.332031 -36.539062 29.34375 -37.46875 C 28.363281 -38.40625 26.941406 -38.875 25.078125 -38.875 L 18.109375 -38.875 Z M 18.109375 -28.3125 "/></g></g></g><g fill="#b37ab4" fill-opacity="1"><g transform="translate(582.159119, 551.385832)"><g><path d="M 18.109375 -39.375 L 18.109375 -31.109375 L 34.28125 -31.109375 L 34.28125 -20.40625 L 18.109375 -20.40625 L 18.109375 -11.28125 L 36.4375 -11.28125 L 36.4375 0 L 4.03125 0 L 4.03125 -50.65625 L 36.4375 -50.65625 L 36.4375 -39.375 Z M 18.109375 -39.375 "/></g></g></g><g fill="#b37ab4" fill-opacity="1"><g transform="translate(623.549282, 551.385832)"><g><path d="M 50.953125 0 L 36.859375 0 L 18.109375 -28.3125 L 18.109375 0 L 4.03125 0 L 4.03125 -50.65625 L 18.109375 -50.65625 L 36.859375 -21.984375 L 36.859375 -50.65625 L 50.953125 -50.65625 Z M 50.953125 0 "/></g></g></g><g fill="#b37ab4" fill-opacity="1"><g transform="translate(680.532505, 551.385832)"><g><path d="M 42.1875 -50.65625 L 42.1875 -39.453125 L 28.671875 -39.453125 L 28.671875 0 L 14.59375 0 L 14.59375 -39.453125 L 1.21875 -39.453125 L 1.21875 -50.65625 Z M 42.1875 -50.65625 "/></g></g></g><g fill="#b37ab4" fill-opacity="1"><g transform="translate(725.946693, 551.385832)"><g><path d="M 23.140625 0.5 C 17.242188 0.5 12.40625 -0.898438 8.625 -3.703125 C 4.84375 -6.503906 2.804688 -10.515625 2.515625 -15.734375 L 17.53125 -15.734375 C 17.675781 -13.960938 18.203125 -12.671875 19.109375 -11.859375 C 20.023438 -11.046875 21.203125 -10.640625 22.640625 -10.640625 C 23.929688 -10.640625 24.992188 -10.960938 25.828125 -11.609375 C 26.671875 -12.253906 27.09375 -13.148438 27.09375 -14.296875 C 27.09375 -15.785156 26.394531 -16.9375 25 -17.75 C 23.613281 -18.5625 21.363281 -19.472656 18.25 -20.484375 C 14.945312 -21.578125 12.273438 -22.640625 10.234375 -23.671875 C 8.203125 -24.703125 6.429688 -26.210938 4.921875 -28.203125 C 3.410156 -30.191406 2.65625 -32.789062 2.65625 -36 C 2.65625 -39.257812 3.46875 -42.050781 5.09375 -44.375 C 6.726562 -46.695312 8.984375 -48.457031 11.859375 -49.65625 C 14.734375 -50.851562 17.988281 -51.453125 21.625 -51.453125 C 27.519531 -51.453125 32.226562 -50.070312 35.75 -47.3125 C 39.269531 -44.5625 41.148438 -40.695312 41.390625 -35.71875 L 26.078125 -35.71875 C 26.035156 -37.25 25.570312 -38.394531 24.6875 -39.15625 C 23.800781 -39.925781 22.660156 -40.3125 21.265625 -40.3125 C 20.210938 -40.3125 19.347656 -40 18.671875 -39.375 C 18.003906 -38.75 17.671875 -37.863281 17.671875 -36.71875 C 17.671875 -35.757812 18.039062 -34.929688 18.78125 -34.234375 C 19.53125 -33.546875 20.453125 -32.945312 21.546875 -32.4375 C 22.648438 -31.9375 24.28125 -31.304688 26.4375 -30.546875 C 29.65625 -29.441406 32.304688 -28.347656 34.390625 -27.265625 C 36.472656 -26.191406 38.265625 -24.679688 39.765625 -22.734375 C 41.273438 -20.796875 42.03125 -18.34375 42.03125 -15.375 C 42.03125 -12.351562 41.273438 -9.644531 39.765625 -7.25 C 38.265625 -4.863281 36.085938 -2.972656 33.234375 -1.578125 C 30.378906 -0.191406 27.015625 0.5 23.140625 0.5 Z M 23.140625 0.5 "/></g></g></g></svg>